<svg width="44" height="44" viewBox="0 0 44 44" fill="none" xmlns="http://www.w3.org/2000/svg">
<rect width="44" height="44" rx="10" fill="url(#paint0_linear_54_832)"/>
<path fill-rule="evenodd" clip-rule="evenodd" d="M32.1044 7.0053C32.0019 7.01736 31.0677 7.1801 30.9532 7.20421L18.0546 9.80804H18.0485C17.711 9.88037 17.4458 10.0009 17.2469 10.1697C16.9998 10.3746 16.8672 10.67 16.8129 11.0075C16.8009 11.0798 16.7828 11.2245 16.7828 11.4415C16.7828 11.4415 16.7828 24.6174 16.7828 27.5828C16.7828 27.9626 16.7526 28.3242 16.4995 28.6376C16.2463 28.9511 15.9269 29.0415 15.5592 29.1198C15.2759 29.1741 14.9987 29.2343 14.7154 29.2886C13.6485 29.5056 12.9554 29.6502 12.3285 29.8913C11.7258 30.1264 11.2798 30.4217 10.9181 30.7954C10.2069 31.5368 9.91757 32.5494 10.02 33.4957C10.1044 34.3034 10.4661 35.0749 11.0929 35.6415C11.5148 36.0272 12.0392 36.3226 12.66 36.4431C13.305 36.5697 13.9861 36.5275 14.9866 36.3226C15.517 36.2141 16.0173 36.0453 16.4935 35.768C16.9636 35.4908 17.3674 35.1231 17.6809 34.6711C17.9943 34.219 18.1992 33.7187 18.3137 33.1823C18.4283 32.6338 18.4584 32.1335 18.4584 31.585V17.5894C18.4584 16.842 18.6693 16.6431 19.2781 16.4924C19.2781 16.4924 30.0009 14.3286 30.5011 14.2322C31.2003 14.0995 31.5258 14.2985 31.5258 15.0278V24.5872C31.5258 24.9669 31.5198 25.3467 31.2666 25.6601C31.0135 25.9735 30.694 26.0639 30.3263 26.1423C30.043 26.1965 29.7658 26.2568 29.4825 26.3111C28.4156 26.528 27.7225 26.6727 27.0956 26.9138C26.4929 27.1489 26.0469 27.4442 25.6852 27.8179C24.974 28.5593 24.6606 29.5719 24.763 30.5182C24.8474 31.3258 25.2332 32.0974 25.86 32.6639C26.2819 33.0497 26.8063 33.333 27.4272 33.4595C28.0721 33.5861 28.7532 33.5439 29.7537 33.339C30.2841 33.2305 30.7844 33.0738 31.2606 32.7905C31.7307 32.5132 32.1346 32.1456 32.448 31.6935C32.7614 31.2415 32.9663 30.7412 33.0809 30.2048C33.1954 29.6563 33.2014 29.156 33.2014 28.6075V8.14448C33.1954 7.40311 32.8036 6.94503 32.1044 7.0053Z" fill="white"/>
<defs>
<linearGradient id="paint0_linear_54_832" x1="22" y1="43.8329" x2="22" y2="0.948395" gradientUnits="userSpaceOnUse">
<stop stop-color="#FA233B"/>
<stop offset="1" stop-color="#FB5C74"/>
</linearGradient>
</defs>
</svg>
