<svg width="24" height="24" viewBox="0 0 24 24" fill="none" xmlns="http://www.w3.org/2000/svg">
<g clip-path="url(#clip0_2805_8590)">
<path d="M9 7.96686L13.1557 12.6946C13.2466 12.7962 13.358 12.8761 13.4821 12.9287C13.6062 12.9813 13.74 13.0053 13.8741 12.999C14.0082 12.9927 14.1394 12.9563 14.2583 12.8923C14.3773 12.8283 14.4811 12.7383 14.5627 12.6286L23 1" stroke="#0E0E0E" stroke-width="1.5" stroke-linecap="round" stroke-linejoin="round"/>
<path d="M23 12C23 14.1756 22.3549 16.3023 21.1462 18.1113C19.9375 19.9202 18.2195 21.3301 16.2095 22.1627C14.1995 22.9952 11.9878 23.2131 9.85401 22.7886C7.72022 22.3642 5.76021 21.3165 4.22183 19.7782C2.68345 18.2398 1.6358 16.2798 1.21137 14.146C0.78693 12.0122 1.00477 9.80047 1.83733 7.79048C2.66989 5.78049 4.07979 4.06253 5.88873 2.85383C7.69767 1.64514 9.82441 1 12 1" stroke="#0E0E0E" stroke-width="1.5" stroke-linecap="round" stroke-linejoin="round"/>
</g>
<defs>
<clipPath id="clip0_2805_8590">
<rect width="24" height="24" fill="white"/>
</clipPath>
</defs>
</svg>
