<svg preserveAspectRatio="none" width="100%" height="100%" overflow="visible" style="display: block;" viewBox="0 0 16.5 23.5" fill="none" xmlns="http://www.w3.org/2000/svg">
<path id="Dollar" d="M14.5 3.19444H8.25M8.25 3.19444H5.125C3.96468 3.19444 2.85188 3.64514 2.03141 4.44738C1.21094 5.24962 0.75 6.33768 0.75 7.47222C0.75 8.60676 1.21094 9.69483 2.03141 10.4971C2.85188 11.2993 3.96468 11.75 5.125 11.75H8.25M8.25 3.19444V0.75M8.25 3.19444V11.75M8.25 11.75H11.375C11.9495 11.75 12.5184 11.8606 13.0492 12.0756C13.58 12.2906 14.0623 12.6057 14.4686 13.0029C14.8748 13.4002 15.1971 13.8717 15.417 14.3907C15.6368 14.9097 15.75 15.466 15.75 16.0278C15.75 16.5895 15.6368 17.1458 15.417 17.6648C15.1971 18.1838 14.8748 18.6554 14.4686 19.0526C14.0623 19.4499 13.58 19.7649 13.0492 19.9799C12.5184 20.1949 11.9495 20.3056 11.375 20.3056H8.25M8.25 11.75V20.3056M8.25 20.3056H0.75M8.25 20.3056V22.75" stroke="#0E0E0E" stroke-width="1.5" stroke-linecap="round" stroke-linejoin="round"/>
</svg>
