<svg preserveAspectRatio="none" width="100%" height="100%" overflow="visible" style="display: block;" viewBox="0 0 23.5002 18.5" fill="none" xmlns="http://www.w3.org/2000/svg">
<path id="Envelope" d="M0.750082 4.39253L8.71233 9.66707C9.81085 10.3935 10.3595 10.7573 10.9527 10.899C11.4774 11.0237 12.0239 11.0237 12.5474 10.899C13.1406 10.7573 13.6893 10.3935 14.7878 9.66707L22.7501 4.39253M6.22556 17.75H17.2746C19.191 17.75 20.1492 17.75 20.8816 17.3794C21.525 17.0532 22.0481 16.5331 22.3759 15.8936C22.7501 15.166 22.7501 14.214 22.7501 12.31V6.19C22.7501 4.286 22.7501 3.334 22.3771 2.6064C22.049 1.96668 21.5255 1.44656 20.8816 1.1206C20.1492 0.75 19.191 0.75 17.2746 0.75H6.22556C4.30914 0.75 3.35093 0.75 2.61859 1.1206C1.97512 1.44676 1.45203 1.96685 1.12424 2.6064C0.750082 3.334 0.750082 4.286 0.750082 6.19V12.31C0.750082 14.214 0.750082 15.166 1.1231 15.8936C1.45119 16.5333 1.97469 17.0534 2.61859 17.3794C3.35093 17.75 4.30914 17.75 6.22556 17.75Z" stroke="#0E0E0E" stroke-width="1.5" stroke-linecap="round" stroke-linejoin="round"/>
</svg>
