<svg width="24" height="24" viewBox="0 0 24 24" fill="none" xmlns="http://www.w3.org/2000/svg">
<path d="M1.60458 14.0064C1.30537 13.6068 1.15576 13.4064 1.05236 13.0207C0.982548 12.6773 0.982548 12.3238 1.05236 11.9804C1.15576 11.5936 1.30537 11.3932 1.60458 10.9946C3.24255 8.80357 6.83309 5 12 5C17.1669 5 20.7575 8.80357 22.3954 10.9936C22.6946 11.3932 22.8442 11.5936 22.9476 11.9793C23.0175 12.3227 23.0175 12.6762 22.9476 13.0196C22.8442 13.4064 22.6946 13.6068 22.3954 14.0054C20.7575 16.1964 17.1669 20 12 20C6.83309 20 3.24255 16.1964 1.60458 14.0064Z" stroke="#0E0E0E" stroke-width="1.5" stroke-linecap="round" stroke-linejoin="round"/>
<path d="M12 15C12.7956 15 13.5587 14.6839 14.1213 14.1213C14.6839 13.5587 15 12.7956 15 12C15 11.2044 14.6839 10.4413 14.1213 9.87868C13.5587 9.31607 12.7956 9 12 9C11.2044 9 10.4413 9.31607 9.87868 9.87868C9.31607 10.4413 9 11.2044 9 12C9 12.7956 9.31607 13.5587 9.87868 14.1213C10.4413 14.6839 11.2044 15 12 15Z" stroke="#0E0E0E" stroke-width="1.5" stroke-linecap="round" stroke-linejoin="round"/>
</svg>
