<svg preserveAspectRatio="none" width="100%" height="100%" overflow="visible" style="display: block;" viewBox="0 0 20.5 23.5001" fill="none" xmlns="http://www.w3.org/2000/svg">
<path id="Filter" d="M7.56023 19.5543V14.1671C7.56023 13.4053 7.56023 13.0231 7.49141 12.6546C7.4292 12.3292 7.32798 12.0125 7.18995 11.7114C7.03303 11.3717 6.81278 11.0596 6.37092 10.4381L1.90136 4.14208C1.12225 3.04622 0.732692 2.4976 0.750587 2.03973C0.758718 1.84337 0.809753 1.65116 0.900112 1.47658C0.990472 1.302 1.11797 1.14928 1.27366 1.02912C1.63707 0.750001 2.31018 0.750001 3.65642 0.750001H16.8449C18.1911 0.750001 18.8642 0.750001 19.2262 1.02912C19.3826 1.14863 19.5106 1.3012 19.6011 1.47592C19.6915 1.65064 19.7421 1.84318 19.7493 2.03973C19.7686 2.4976 19.3777 3.04622 18.5999 4.14346L14.1304 10.4381C13.6899 11.0596 13.4683 11.3717 13.3113 11.7114C13.1727 12.0129 13.071 12.3301 13.0085 12.656C12.9397 13.0231 12.9397 13.404 12.9397 14.1684V22.241M12.9397 22.241C12.9397 19.1473 9.83837 18.5478 7.56161 19.5543C7.51618 22.6273 10.6739 23.3932 12.9397 22.241Z" stroke="#0E0E0E" stroke-width="1.5" stroke-linecap="round" stroke-linejoin="round"/>
</svg>
