<svg width="24" height="24" viewBox="0 0 24 24" fill="none" xmlns="http://www.w3.org/2000/svg">
<path d="M5.4885 22.0003C4.11417 22.0003 3 20.857 3 19.4453V9.17632C3 8.40049 3.34417 7.66549 3.93333 7.18132L10.7782 1.56032C11.2155 1.19817 11.7655 1 12.3333 1C12.9012 1 13.4512 1.19817 13.8885 1.56032L20.7322 7.18132C21.3225 7.66549 21.6667 8.40049 21.6667 9.17632V19.4453C21.6667 20.857 20.5525 22.0003 19.1782 22.0003H5.4885Z" fill="#CC2486" stroke="#CC2486" stroke-width="1.5" stroke-linecap="round" stroke-linejoin="round"/>
<path d="M9 21.75V15.3333C9 14.7145 9.24583 14.121 9.68342 13.6834C10.121 13.2458 10.7145 13 11.3333 13H12.5C13.1188 13 13.7123 13.2458 14.1499 13.6834C14.5875 14.121 14.8333 14.7145 14.8333 15.3333V21.75" stroke="#FDF2F7" stroke-width="1.5" stroke-linecap="round" stroke-linejoin="round"/>
</svg>
