<svg width="24" height="24" viewBox="0 0 24 24" fill="none" xmlns="http://www.w3.org/2000/svg">
<g clip-path="url(#clip0_2805_8627)">
<path d="M1 9C1 6.2 1 4.8 1.545 3.73C2.02436 2.78923 2.78923 2.02436 3.73 1.545C4.8 1 6.2 1 9 1H15.5C18.3 1 19.7 1 20.77 1.545C21.7108 2.02436 22.4756 2.78923 22.955 3.73C23.5 4.8 23.5 6.2 23.5 9V15.5C23.5 18.3 23.5 19.7 22.955 20.77C22.4756 21.7108 21.7108 22.4756 20.77 22.955C19.7 23.5 18.3 23.5 15.5 23.5H9C6.2 23.5 4.8 23.5 3.73 22.955C2.78923 22.4756 2.02436 21.7108 1.545 20.77C1 19.7 1 18.3 1 15.5V9Z" stroke="#0E0E0E" stroke-width="1.5" stroke-linecap="round" stroke-linejoin="round"/>
<path d="M24.0338 9.9875C15.7712 8.8525 8.64625 14.9875 9.125 23.125M6 7.5C6 8.16304 6.26339 8.79893 6.73223 9.26777C7.20107 9.73661 7.83696 10 8.5 10C9.16304 10 9.79893 9.73661 10.2678 9.26777C10.7366 8.79893 11 8.16304 11 7.5C11 6.83696 10.7366 6.20107 10.2678 5.73223C9.79893 5.26339 9.16304 5 8.5 5C7.83696 5 7.20107 5.26339 6.73223 5.73223C6.26339 6.20107 6 6.83696 6 7.5Z" stroke="#0E0E0E" stroke-width="1.5" stroke-linecap="round" stroke-linejoin="round"/>
<path d="M1 16.0821C4.475 15.6008 7.59375 17.2796 9.28 19.9571" stroke="#0E0E0E" stroke-width="1.5" stroke-linecap="round" stroke-linejoin="round"/>
</g>
<defs>
<clipPath id="clip0_2805_8627">
<rect width="24" height="24" fill="white"/>
</clipPath>
</defs>
</svg>
