<svg width="24" height="24" viewBox="0 0 24 24" fill="none" xmlns="http://www.w3.org/2000/svg">
<g clip-path="url(#clip0_2805_8637)">
<path d="M16.9514 11.8405C17.038 12.4251 17.0086 13.021 16.865 13.5942C16.7213 14.1674 16.4661 14.7067 16.114 15.1813C15.7619 15.6559 15.3197 16.0565 14.8128 16.3602C14.3059 16.6639 13.7441 16.8648 13.1595 16.9514C12.575 17.038 11.9791 17.0086 11.4058 16.865C10.8326 16.7213 10.2933 16.4661 9.81874 16.114C8.86026 15.4029 8.22352 14.3401 8.04861 13.1595C7.8737 11.9789 8.17493 10.7772 8.88605 9.81874C9.59716 8.86026 10.6599 8.22352 11.8405 8.04861C13.0211 7.8737 14.2228 8.17493 15.1813 8.88605C16.1398 9.59716 16.7765 10.6599 16.9514 11.8405Z" stroke="#0E0E0E" stroke-width="1.5" stroke-linecap="round" stroke-linejoin="round"/>
<path d="M18.1111 5.27778H18.7222M1 8.82222C1 6.08444 1 4.71556 1.53289 3.66933C2.0016 2.74947 2.74947 2.0016 3.66933 1.53289C4.71556 1 6.08444 1 8.82222 1H15.1778C17.9156 1 19.2844 1 20.3307 1.53289C21.2505 2.0016 21.9984 2.74947 22.4671 3.66933C23 4.71556 23 6.08444 23 8.82222V15.1778C23 17.9156 23 19.2844 22.4671 20.3307C21.9984 21.2505 21.2505 21.9984 20.3307 22.4671C19.2844 23 17.9156 23 15.1778 23H8.82222C6.08444 23 4.71556 23 3.66933 22.4671C2.74947 21.9984 2.0016 21.2505 1.53289 20.3307C1 19.2844 1 17.9156 1 15.1778V8.82222Z" stroke="#0E0E0E" stroke-width="1.5" stroke-linecap="round" stroke-linejoin="round"/>
</g>
<defs>
<clipPath id="clip0_2805_8637">
<rect width="24" height="24" fill="white"/>
</clipPath>
</defs>
</svg>
