<svg width="60" height="60" viewBox="0 0 60 60" fill="none" xmlns="http://www.w3.org/2000/svg">
<path d="M42.1667 1.01049H51.6667M56.48 56.1447C57.4553 54.9574 58 53.3459 58 51.6678V13.6748C58 11.9968 57.4553 10.3821 56.48 9.19799C55.5142 8.00754 54.1968 7.34266 52.8225 7.34266H24.3827C18.9202 7.34266 17.8625 1.86217 13.1188 1.09281C12.2828 0.956671 11.4152 1.01049 10.5697 1.01049C7.55183 1.01049 6.0445 1.01049 4.857 1.5139C3.34644 2.15585 2.14414 3.35906 1.5035 4.86995C1 6.0509 1 7.55795 1 10.5752V51.6678C1 53.3459 1.54467 54.9606 2.52 56.1447C3.489 57.332 4.80633 58 6.18067 58H52.8193C54.1937 58 55.5078 57.3351 56.48 56.1447Z" stroke="#0E0E0E" stroke-width="1.5" stroke-linecap="round" stroke-linejoin="round"/>
<path d="M30 50C33.9782 50 37.7936 48.4196 40.6066 45.6066C43.4196 42.7936 45 38.9782 45 35C45 31.0218 43.4196 27.2064 40.6066 24.3934C37.7936 21.5804 33.9782 20 30 20C26.0218 20 22.2064 21.5804 19.3934 24.3934C16.5804 27.2064 15 31.0218 15 35C15 38.9782 16.5804 42.7936 19.3934 45.6066C22.2064 48.4196 26.0218 50 30 50Z" stroke="#0E0E0E" stroke-width="1.5" stroke-linecap="round" stroke-linejoin="round"/>
</svg>
