<svg width="61" height="60" viewBox="0 0 61 60" fill="none" xmlns="http://www.w3.org/2000/svg">
<path d="M19.1875 48.6113C19.1875 53.7965 15.0575 58 9.97038 58C4.87672 58 0.75 53.7965 0.75 48.6113C0.75 43.4294 4.88 39.2259 9.97038 39.2259C15.0608 39.2259 19.1875 43.4261 19.1875 48.6113ZM19.1875 48.6113V8.46058C19.1875 6.74756 20.4789 5.31784 22.167 5.16301L56.1739 2.01367C56.629 1.97187 57.0878 2.02618 57.5208 2.17312C57.9538 2.32006 58.3515 2.55638 58.6882 2.8669C59.025 3.17743 59.2934 3.5553 59.4762 3.97626C59.6591 4.39721 59.7523 4.85194 59.75 5.31125V44.8558C59.75 50.0377 55.62 54.2445 50.5329 54.2445C45.4392 54.2445 41.3125 50.0377 41.3125 44.8558C41.3125 39.6739 45.4425 35.4671 50.5329 35.4671C55.6232 35.4671 59.75 39.6772 59.75 44.8624" stroke="#5D646F" stroke-width="1.5" stroke-linecap="round" stroke-linejoin="round"/>
</svg>
