<svg preserveAspectRatio="none" width="100%" height="100%" overflow="visible" style="display: block;" viewBox="0 0 59.5077 59.4962" fill="none" xmlns="http://www.w3.org/2000/svg">
<path id="LargeStar" d="M32.5053 2.36214C32.2312 1.87317 31.8318 1.46606 31.3482 1.18271C30.8645 0.899361 30.3141 0.75 29.7535 0.75C29.193 0.75 28.6425 0.899361 28.1589 1.18271C27.6752 1.46606 27.2758 1.87317 27.0017 2.36214C26.3573 3.535 25.7375 4.7229 25.1425 5.92583C23.2678 9.73105 21.6739 13.6683 20.3735 17.706C19.9257 19.0948 18.5981 20.0582 17.0772 20.1001C12.4669 20.2213 7.87152 20.6789 3.32786 21.4695C0.83384 21.9077 -0.103834 24.7496 1.6684 26.4831C2.07226 26.8805 2.48041 27.2726 2.89286 27.6592C5.97674 30.5716 9.23741 33.2909 12.6563 35.8016C13.8388 36.6684 14.3254 38.1538 13.8743 39.5135C12.1558 44.6788 10.926 49.9939 10.2009 55.389C9.87869 57.8218 12.4823 59.5392 14.7443 58.3792C19.2298 56.0793 23.519 53.4153 27.5688 50.414C28.2031 49.951 28.9682 49.7016 29.7535 49.7016C30.5388 49.7016 31.3039 49.951 31.9382 50.414C35.9872 53.4166 40.2765 56.0806 44.7627 58.3792C47.0215 59.5392 49.6283 57.8218 49.3061 55.389C49.1815 54.4761 49.0451 53.5685 48.8969 52.6663C48.1525 48.2038 47.0611 43.8062 45.6327 39.5135C45.1816 38.1538 45.665 36.6684 46.8507 35.8016C50.7295 32.9596 54.4013 29.8456 57.8386 26.4831C59.6108 24.7496 58.6764 21.9077 56.1792 21.4695C51.6361 20.6743 47.0405 20.2166 42.4298 20.1001C41.7009 20.0885 40.9932 19.8524 40.4033 19.4239C39.8134 18.9955 39.37 18.3956 39.1335 17.706C37.4215 12.3916 35.2019 7.25116 32.5053 2.36214Z" stroke="#0E0E0E" stroke-width="1.5" stroke-linecap="round" stroke-linejoin="round"/>
</svg>
