<svg preserveAspectRatio="none" width="100%" height="100%" overflow="visible" style="display: block;" viewBox="0 0 59.5 59.5" fill="none" xmlns="http://www.w3.org/2000/svg">
<path id="LargeMessaging" d="M29.75 58.75C35.4856 58.75 41.0925 57.0492 45.8615 53.8626C50.6305 50.6761 54.3475 46.1469 56.5425 40.8478C58.7374 35.5488 59.3117 29.7178 58.1928 24.0924C57.0738 18.4669 54.3118 13.2996 50.2561 9.24391C46.2004 5.18819 41.0331 2.42621 35.4076 1.30724C29.7822 0.188269 23.9512 0.762565 18.6522 2.95751C13.3531 5.15245 8.82394 8.86945 5.63738 13.6385C2.45082 18.4075 0.75 24.0143 0.75 29.75C0.75 34.39 1.83911 38.7722 3.77889 42.6614C5.23855 45.5969 3.20855 49.557 2.43522 52.4473C2.2639 53.0866 2.26387 53.7597 2.43514 54.3989C2.60641 55.0382 2.94294 55.6211 3.41091 56.0891C3.87888 56.5571 4.4618 56.8936 5.10106 57.0649C5.74033 57.2361 6.41341 57.2361 7.05266 57.0648C9.943 56.2914 13.9031 54.2614 16.8386 55.7243C20.8509 57.7166 25.2703 58.7522 29.75 58.75Z" stroke="#0E0E0E" stroke-width="1.5" stroke-linecap="round" stroke-linejoin="round"/>
</svg>
