<svg preserveAspectRatio="none" width="100%" height="100%" overflow="visible" style="display: block;" viewBox="0 0 58.5 37.5" fill="none" xmlns="http://www.w3.org/2000/svg">
<path id="LargeVideo" d="M0.75 30.4891V7.01087C0.75 5.35038 1.41726 3.75791 2.60499 2.58377C3.79272 1.40963 5.40363 0.75 7.08333 0.75H34C35.6797 0.75 37.2906 1.40963 38.4783 2.58377C39.6661 3.75791 40.3333 5.35038 40.3333 7.01087V30.4891C40.3333 32.1496 39.6661 33.7421 38.4783 34.9162C37.2906 36.0904 35.6797 36.75 34 36.75H7.08333C5.40363 36.75 3.79272 36.0904 2.60499 34.9162C1.41726 33.7421 0.75 32.1496 0.75 30.4891ZM55.1153 3.06965L42.4487 14.2234C42.2817 14.3699 42.148 14.5497 42.0563 14.751C41.9647 14.9522 41.9171 15.1703 41.9167 15.391V20.957C41.9171 21.1777 41.9647 21.3958 42.0563 21.597C42.148 21.7983 42.2817 21.9781 42.4487 22.1246L55.1153 33.2783C55.3435 33.4787 55.6255 33.6095 55.9272 33.6552C56.2289 33.7008 56.5375 33.6593 56.8158 33.5356C57.0942 33.4119 57.3305 33.2113 57.4962 32.9579C57.662 32.7046 57.7501 32.4093 57.75 32.1076V4.24043C57.7501 3.93872 57.662 3.64341 57.4962 3.39006C57.3305 3.13671 57.0942 2.93611 56.8158 2.8124C56.5375 2.6887 56.2289 2.64717 55.9272 2.69281C55.6255 2.73845 55.3435 2.86932 55.1153 3.06965Z" stroke="#0E0E0E" stroke-width="1.5" stroke-linecap="round" stroke-linejoin="round"/>
</svg>
