<svg width="24" height="24" viewBox="0 0 24 24" fill="none" xmlns="http://www.w3.org/2000/svg">
<path d="M12.672 22.7797C12.4762 22.9229 12.2411 23 12 23C11.7589 23 11.5238 22.9229 11.328 22.7797C5.53301 18.5729 -0.617169 9.91965 5.60021 3.66685C7.30707 1.9568 9.60573 0.998929 12 1C14.4001 1 16.7029 1.95943 18.3998 3.66563C24.6172 9.91843 18.467 18.5704 12.672 22.7797Z" stroke="#0E0E0E" stroke-width="1.5" stroke-linecap="round" stroke-linejoin="round"/>
<path d="M12 13C12.7956 13 13.5587 12.6839 14.1213 12.1213C14.6839 11.5587 15 10.7956 15 10C15 9.20435 14.6839 8.44129 14.1213 7.87868C13.5587 7.31607 12.7956 7 12 7C11.2044 7 10.4413 7.31607 9.87868 7.87868C9.31607 8.44129 9 9.20435 9 10C9 10.7956 9.31607 11.5587 9.87868 12.1213C10.4413 12.6839 11.2044 13 12 13Z" stroke="#0E0E0E" stroke-width="1.5" stroke-linecap="round" stroke-linejoin="round"/>
</svg>
