<svg width="35" height="35" viewBox="0 0 35 35" fill="none" xmlns="http://www.w3.org/2000/svg">
<path d="M18.508 33.6695C18.2143 33.8844 17.8617 34 17.5 34C17.1383 34 16.7857 33.8844 16.492 33.6695C7.79952 27.3593 -1.42575 14.3795 7.90032 5.00028C10.4606 2.4352 13.9086 0.998394 17.5 1C21.1001 1 24.5544 2.43915 27.0997 4.99844C36.4258 14.3776 27.2005 27.3556 18.508 33.6695Z" stroke="#0E0E0E" stroke-width="1.5" stroke-linecap="round" stroke-linejoin="round"/>
<path d="M17.5 19C18.6935 19 19.8381 18.5259 20.682 17.682C21.5259 16.8381 22 15.6935 22 14.5C22 13.3065 21.5259 12.1619 20.682 11.318C19.8381 10.4741 18.6935 10 17.5 10C16.3065 10 15.1619 10.4741 14.318 11.318C13.4741 12.1619 13 13.3065 13 14.5C13 15.6935 13.4741 16.8381 14.318 17.682C15.1619 18.5259 16.3065 19 17.5 19Z" stroke="#0E0E0E" stroke-width="1.5" stroke-linecap="round" stroke-linejoin="round"/>
</svg>
