<svg preserveAspectRatio="none" width="100%" height="100%" overflow="visible" style="display: block;" viewBox="0 0 27 33" fill="none" xmlns="http://www.w3.org/2000/svg">
<path id="MediumMicrophone" fill-rule="evenodd" clip-rule="evenodd" d="M6.64665 1.62564e-09C4.94391 -3.74968e-05 3.23831 0.648651 1.94301 1.94523C-0.647446 4.53822 -0.647895 8.7655 1.94301 11.355C3.66541 13.0787 5.81866 13.4729 7.71139 12.9838L22.3723 25.8153C22.4445 25.8774 22.5279 25.9251 22.618 25.9559C23.349 26.2228 24.0841 26.0692 24.689 25.7099C25.3314 26.5367 25.535 27.3464 25.4963 28.0886C25.4512 28.9578 25.0412 29.775 24.4082 30.3972C23.7752 31.0194 22.9306 31.4225 22.0914 31.4869C21.2536 31.5513 20.4211 31.3127 19.6577 30.5612C19.6577 30.5612 19.6577 30.5503 19.6577 30.5496L10.9642 21.8546C10.0576 20.9471 8.97097 20.5422 7.93372 20.5539C7.86456 20.5539 7.7917 20.5494 7.72311 20.5539C6.62591 20.6264 5.62943 21.1394 4.87988 21.8898C4.13022 22.6401 3.6185 23.6504 3.54597 24.749C3.47356 25.8476 3.87771 27.027 4.84476 27.995C4.91419 28.0665 4.99715 28.1233 5.08879 28.1623C5.18042 28.2012 5.2789 28.2215 5.37845 28.2219C5.478 28.2223 5.57664 28.2028 5.66858 28.1646C5.76053 28.1264 5.84394 28.0702 5.91395 27.9993C5.98395 27.9284 6.03914 27.8443 6.07629 27.7518C6.11343 27.6593 6.13179 27.5602 6.13029 27.4606C6.12879 27.3609 6.10746 27.2625 6.06754 27.1712C6.02762 27.0798 5.96992 26.9974 5.89781 26.9286C5.19945 26.2296 4.9867 25.529 5.03197 24.8428C5.07724 24.1565 5.41537 23.4743 5.9329 22.9561C6.45049 22.438 7.13081 22.0992 7.81671 22.0538C8.50261 22.0085 9.21285 22.222 9.9111 22.921L18.6047 31.6159C18.6046 31.6198 18.6046 31.6237 18.6047 31.6275C19.659 32.6681 20.9761 33.0816 22.2084 32.9869C23.4408 32.8922 24.5915 32.3184 25.4612 31.4635C26.3309 30.6086 26.927 29.4486 26.994 28.1589C27.0541 27.0026 26.6655 25.7712 25.742 24.6435C26.0682 24.0548 26.1917 23.3334 25.9175 22.6279C25.8842 22.546 25.8367 22.4706 25.7771 22.4053C21.2447 17.2472 17.478 12.8542 12.965 7.72233C13.4471 5.82472 13.0576 3.66282 11.3386 1.94523C10.0453 0.648989 8.34899 2.25007e-05 6.64665 1.62564e-09ZM6.64665 1.49994C7.963 1.4999 9.27859 2.00187 10.2855 3.01159C10.3177 3.0438 10.3482 3.07296 10.3791 3.10534C10.3791 3.148 10.3724 3.25672 10.2972 3.48032C10.2009 3.76681 10.012 4.16544 9.73561 4.59355C9.18278 5.44976 8.31256 6.46328 7.37209 7.39422C6.43162 8.32515 5.41332 9.17713 4.55226 9.72615C4.12153 10.0006 3.7279 10.1912 3.44069 10.2886C3.21379 10.3656 3.10083 10.3694 3.06627 10.3707C3.04193 10.347 3.02025 10.3246 2.99606 10.3003C0.978619 8.28435 0.97787 5.03177 2.99606 3.01159C4.00516 2.00151 5.33031 1.49996 6.64665 1.49994ZM11.4088 4.6873C11.8283 5.75533 11.7529 6.85092 11.3503 7.8981C10.7359 9.49415 9.28889 10.8932 7.67631 11.437C7.66058 11.4404 7.64497 11.4443 7.6295 11.4486C6.64549 11.7721 5.62722 11.8161 4.63415 11.4134C4.86958 11.2925 5.11415 11.148 5.35959 10.9915C6.35367 10.3578 7.42365 9.4517 8.42514 8.46039C9.4266 7.46909 10.3463 6.39532 10.9876 5.40191C11.145 5.15832 11.2872 4.92223 11.4088 4.6873ZM14.919 12.2221C18.1337 15.9066 21.1172 19.3663 24.5486 23.2724C24.6239 23.5923 24.4883 23.9382 24.1976 24.2216C23.9103 24.5016 23.5422 24.6295 23.2381 24.5731L12.2161 14.9291L14.919 12.2221Z" fill="#0E0E0E"/>
</svg>
