<svg preserveAspectRatio="none" width="100%" height="100%" overflow="visible" style="display: block;" viewBox="0 0 30.5 34.5" fill="none" xmlns="http://www.w3.org/2000/svg">
<path id="MediumEdit" d="M0.75 33.75H29.75M3.76962 19.4264C2.9968 20.2099 2.56269 21.2713 2.5625 22.378V28.2501H8.40419C9.49894 28.2501 10.5484 27.8101 11.3223 27.0255L28.5411 9.59995C29.3136 8.8164 29.7475 7.75495 29.7475 6.64834C29.7475 5.54173 29.3136 4.48028 28.5411 3.69673L26.8409 1.97343C26.4575 1.58541 26.0023 1.27764 25.5012 1.06772C25.0001 0.857794 24.463 0.74983 23.9206 0.75C23.3783 0.75017 22.8412 0.858471 22.3403 1.06871C21.8393 1.27895 21.3842 1.587 21.0011 1.97526L3.76962 19.4264Z" stroke="#0E0E0E" stroke-width="1.5" stroke-linecap="round" stroke-linejoin="round"/>
</svg>
