<svg preserveAspectRatio="none" width="100%" height="100%" overflow="visible" style="display: block;" viewBox="0 0 33.5 34.5" fill="none" xmlns="http://www.w3.org/2000/svg">
<path id="MediumBuildings" d="M0.75 33.75H32.75M3.62179 33.75V8.9637C3.62179 6.08775 3.6218 4.6506 4.15841 3.5517C4.62279 2.59552 5.37575 1.81129 6.30979 1.311C7.36333 0.75 8.7418 0.75 11.4987 0.75H12.1551C14.9121 0.75 16.2905 0.75 17.3441 1.311C18.2783 1.81172 19.0313 2.59655 19.4954 3.55335C20.0321 4.6506 20.0321 6.08775 20.0321 8.9637V33.75M13.4679 7.35H10.1859M13.4679 13.95H10.1859M13.4679 20.55H10.1859M29.55 33.75V16.3326C29.55 12.5294 28.2405 11.1384 24.75 11.1384H20.0321" stroke="#0E0E0E" stroke-width="1.5" stroke-linecap="round" stroke-linejoin="round"/>
</svg>
