<svg preserveAspectRatio="none" width="100%" height="100%" overflow="visible" style="display: block;" viewBox="0 0 34.5 32.5" fill="none" xmlns="http://www.w3.org/2000/svg">
<path id="MediumMusic" d="M11.0625 26.5527C11.0625 29.4231 8.75249 31.75 5.90716 31.75C3.05817 31.75 0.75 29.4231 0.75 26.5527C0.75 23.6841 3.06 21.3572 5.90716 21.3572C8.75433 21.3572 11.0625 23.6823 11.0625 26.5527ZM11.0625 26.5527V4.32639C11.0625 3.37811 11.7848 2.58666 12.729 2.50095L31.7498 0.757569C32.0044 0.734427 32.261 0.764492 32.5032 0.845834C32.7454 0.927175 32.9678 1.05799 33.1561 1.22989C33.3445 1.40179 33.4946 1.61097 33.5969 1.844C33.6991 2.07703 33.7513 2.32875 33.75 2.58301V24.4738C33.75 27.3423 31.44 29.6711 28.5946 29.6711C25.7456 29.6711 23.4375 27.3423 23.4375 24.4738C23.4375 21.6052 25.7475 19.2764 28.5946 19.2764C31.4418 19.2764 33.75 21.607 33.75 24.4774" stroke="#0E0E0E" stroke-width="1.5" stroke-linecap="round" stroke-linejoin="round"/>
</svg>
