<svg preserveAspectRatio="none" width="100%" height="100%" overflow="visible" style="display: block;" viewBox="0 0 23.5 34.5" fill="none" xmlns="http://www.w3.org/2000/svg">
<path id="MediumDollar" d="M20.9167 4.41667H11.75M11.75 4.41667H7.16667C5.46486 4.41667 3.83276 5.09271 2.6294 6.29607C1.42604 7.49942 0.75 9.13153 0.75 10.8333C0.75 12.5351 1.42604 14.1672 2.6294 15.3706C3.83276 16.574 5.46486 17.25 7.16667 17.25H11.75M11.75 4.41667V0.75M11.75 4.41667V17.25M11.75 17.25H16.3333C17.176 17.25 18.0104 17.416 18.7889 17.7384C19.5674 18.0609 20.2748 18.5336 20.8706 19.1294C21.4664 19.7252 21.9391 20.4326 22.2616 21.2111C22.584 21.9896 22.75 22.824 22.75 23.6667C22.75 24.5093 22.584 25.3437 22.2616 26.1222C21.9391 26.9007 21.4664 27.6081 20.8706 28.2039C20.2748 28.7998 19.5674 29.2724 18.7889 29.5949C18.0104 29.9174 17.176 30.0833 16.3333 30.0833H11.75M11.75 17.25V30.0833M11.75 30.0833H0.75M11.75 30.0833V33.75" stroke="#0E0E0E" stroke-width="1.5" stroke-linecap="round" stroke-linejoin="round"/>
</svg>
