<svg preserveAspectRatio="none" width="100%" height="100%" overflow="visible" style="display: block;" viewBox="0 0 8.00525 7.99748" fill="none" xmlns="http://www.w3.org/2000/svg">
<path id="MiniStar" d="M4.33472 0.694568C4.30164 0.635555 4.25343 0.586422 4.19506 0.552224C4.13669 0.518026 4.07026 0.5 4.0026 0.5C3.93495 0.5 3.86852 0.518026 3.81015 0.552224C3.75177 0.586422 3.70357 0.635555 3.67049 0.694568C3.59271 0.836121 3.51791 0.979488 3.4461 1.12467C3.21984 1.58392 3.02747 2.0591 2.87054 2.54641C2.81648 2.71402 2.65626 2.8303 2.4727 2.83535C1.91628 2.84998 1.36167 2.90522 0.813301 3.00063C0.512299 3.05351 0.399131 3.39651 0.613022 3.60572C0.661763 3.65369 0.711023 3.701 0.760801 3.74767C1.13299 4.09916 1.52652 4.42735 1.93914 4.73036C2.08187 4.83497 2.14059 5.01425 2.08614 5.17835C1.87875 5.80175 1.73032 6.44323 1.64281 7.09437C1.60392 7.38797 1.91814 7.59524 2.19115 7.45525C2.7325 7.17768 3.25016 6.85616 3.73893 6.49394C3.81549 6.43806 3.90782 6.40795 4.0026 6.40795C4.09738 6.40795 4.18972 6.43806 4.26627 6.49394C4.75494 6.85631 5.27262 7.17783 5.81406 7.45525C6.08668 7.59524 6.40129 7.38797 6.3624 7.09437C6.34736 6.98418 6.3309 6.87465 6.31301 6.76576C6.22317 6.22719 6.09145 5.69644 5.91906 5.17835C5.86462 5.01425 5.92295 4.83497 6.06606 4.73036C6.53419 4.38737 6.97734 4.01154 7.39219 3.60572C7.60608 3.39651 7.4933 3.05351 7.19191 3.00063C6.64361 2.90466 6.08896 2.84942 5.5325 2.83535C5.44453 2.83395 5.35912 2.80546 5.28792 2.75375C5.21673 2.70204 5.16321 2.62964 5.13467 2.54641C4.92805 1.90502 4.66016 1.28462 4.33472 0.694568Z" stroke="#0E0E0E" stroke-linecap="round" stroke-linejoin="round"/>
</svg>
