<svg width="24" height="24" viewBox="0 0 24 24" fill="none" xmlns="http://www.w3.org/2000/svg">
<path d="M17.1667 2.00387H20.6667M22.44 22.3165C22.7993 21.879 23 21.2853 23 20.6671V6.66967C23 6.05145 22.7993 5.45656 22.44 5.02031C22.0842 4.58172 21.5988 4.33677 21.0925 4.33677H10.6147C8.60217 4.33677 8.2125 2.31764 6.46483 2.03419C6.15683 1.98404 5.83717 2.00387 5.52567 2.00387C4.41383 2.00387 3.8585 2.00387 3.421 2.18933C2.86448 2.42584 2.42153 2.86913 2.1855 3.42577C2 3.86086 2 4.41609 2 5.52772V20.6671C2 21.2853 2.20067 21.8802 2.56 22.3165C2.917 22.7539 3.40233 23 3.90867 23H21.0913C21.5977 23 22.0818 22.755 22.44 22.3165Z" stroke="#0E0E0E" stroke-width="1.5" stroke-linecap="round" stroke-linejoin="round"/>
<path d="M13 19C14.3261 19 15.5979 18.4732 16.5355 17.5355C17.4732 16.5979 18 15.3261 18 14C18 12.6739 17.4732 11.4021 16.5355 10.4645C15.5979 9.52678 14.3261 9 13 9C11.6739 9 10.4021 9.52678 9.46447 10.4645C8.52678 11.4021 8 12.6739 8 14C8 15.3261 8.52678 16.5979 9.46447 17.5355C10.4021 18.4732 11.6739 19 13 19Z" stroke="#0E0E0E" stroke-width="1.5" stroke-linecap="round" stroke-linejoin="round"/>
</svg>
