<svg preserveAspectRatio="none" width="100%" height="100%" overflow="visible" style="display: block;" viewBox="0 0 23.5 23.5" fill="none" xmlns="http://www.w3.org/2000/svg">
<path id="PieChart" d="M11.7499 0.75C9.94095 0.750016 8.15992 1.19616 6.56457 2.0489C4.96922 2.90165 3.6088 4.13468 2.60381 5.63877C1.59881 7.14287 0.98027 8.8716 0.802968 10.6718C0.625665 12.4721 0.895075 14.2883 1.58733 15.9595C2.27959 17.6308 3.37333 19.1055 4.77167 20.2531C6.17001 21.4007 7.82979 22.1857 9.60398 22.5386C11.3782 22.8915 13.212 22.8015 14.9431 22.2764C16.6741 21.7513 18.249 20.8073 19.5281 19.5282M11.7499 0.75C13.9255 0.749981 16.0523 1.39511 17.8612 2.6038C19.6702 3.8125 21.0801 5.53047 21.9127 7.54047C22.7452 9.55047 22.9631 11.7622 22.5386 13.896C22.1142 16.0298 21.0665 17.9898 19.5281 19.5282M11.7499 0.75V11.75L19.5281 19.5282" stroke="#0E0E0E" stroke-width="1.5" stroke-linecap="round" stroke-linejoin="round"/>
</svg>
