<svg preserveAspectRatio="none" width="100%" height="100%" overflow="visible" style="display: block;" viewBox="0 0 23.5 23.5" fill="none" xmlns="http://www.w3.org/2000/svg">
<path id="PlusBox" d="M16.0278 11.75H11.75M11.75 11.75H7.47222M11.75 11.75V7.47222M11.75 11.75V16.0278M0.75 8.57222C0.75 5.83444 0.75 4.46556 1.28289 3.41933C1.7516 2.49947 2.49947 1.7516 3.41933 1.28289C4.46556 0.75 5.83444 0.75 8.57222 0.75H14.9278C17.6656 0.75 19.0344 0.75 20.0807 1.28289C21.0005 1.7516 21.7484 2.49947 22.2171 3.41933C22.75 4.46556 22.75 5.83444 22.75 8.57222V14.9278C22.75 17.6656 22.75 19.0344 22.2171 20.0807C21.7484 21.0005 21.0005 21.7484 20.0807 22.2171C19.0344 22.75 17.6656 22.75 14.9278 22.75H8.57222C5.83444 22.75 4.46556 22.75 3.41933 22.2171C2.49947 21.7484 1.7516 21.0005 1.28289 20.0807C0.75 19.0344 0.75 17.6656 0.75 14.9278V8.57222Z" stroke="#0E0E0E" stroke-width="1.5" stroke-linecap="round" stroke-linejoin="round"/>
</svg>
