<svg width="24" height="24" viewBox="0 0 24 24" fill="none" xmlns="http://www.w3.org/2000/svg">
<path d="M7.20833 14L6 21.7817C6 22.7604 8.15325 23.396 8.95679 22.9586L11.5015 21.5726C11.6671 21.4819 11.8529 21.4343 12.0417 21.4343C12.2305 21.4343 12.4162 21.4819 12.5818 21.5726L15.1265 22.9586C15.9301 23.396 18.0833 22.7592 18.0833 21.7805L16.875 14" stroke="#0E0E0E" stroke-width="1.5" stroke-linecap="round" stroke-linejoin="round"/>
<path d="M19.5 8.25C19.5 10.1728 18.7362 12.0169 17.3765 13.3765C16.0169 14.7362 14.1728 15.5 12.25 15.5C10.3272 15.5 8.48311 14.7362 7.12348 13.3765C5.76384 12.0169 5 10.1728 5 8.25C5 6.32718 5.76384 4.48311 7.12348 3.12348C8.48311 1.76384 10.3272 1 12.25 1C14.1728 1 16.0169 1.76384 17.3765 3.12348C18.7362 4.48311 19.5 6.32718 19.5 8.25Z" stroke="#0E0E0E" stroke-width="1.5" stroke-linecap="round" stroke-linejoin="round"/>
</svg>
