<svg preserveAspectRatio="none" width="100%" height="100%" overflow="visible" style="display: block;" viewBox="0 0 23.5 23.5" fill="none" xmlns="http://www.w3.org/2000/svg">
<path id="Send" d="M14.1958 9.30419L10.5284 12.9712M21.8826 0.785773C21.9986 0.745747 22.1236 0.73916 22.2431 0.766765C22.3627 0.794369 22.4721 0.855052 22.5588 0.941877C22.6455 1.0287 22.706 1.13817 22.7334 1.25776C22.7609 1.37735 22.7541 1.50225 22.7139 1.61818L15.472 22.3122C15.4287 22.4359 15.3492 22.5438 15.2438 22.6217C15.1384 22.6997 15.012 22.7442 14.8811 22.7495C14.7501 22.7547 14.6205 22.7205 14.5092 22.6513C14.3979 22.582 14.31 22.4809 14.2569 22.3611L10.3218 13.509C10.2556 13.3618 10.1377 13.244 9.99048 13.1778L1.13738 9.24185C1.01794 9.18853 0.917235 9.10062 0.848274 8.98949C0.779313 8.87835 0.745265 8.74909 0.75053 8.6184C0.755795 8.48772 0.80013 8.36161 0.877808 8.25638C0.955486 8.15115 1.06294 8.07162 1.18628 8.02808L21.8826 0.785773Z" stroke="#0E0E0E" stroke-width="1.5" stroke-linecap="round" stroke-linejoin="round"/>
</svg>
