<svg width="24" height="24" viewBox="0 0 24 24" fill="none" xmlns="http://www.w3.org/2000/svg">
<g clip-path="url(#clip0_2805_8565)">
<path d="M16 12C16 10.9391 15.5786 9.92172 14.8284 9.17157C14.0783 8.42143 13.0609 8 12 8C10.9391 8 9.92172 8.42143 9.17157 9.17157C8.42143 9.92172 8 10.9391 8 12C8 13.0609 8.42143 14.0783 9.17157 14.8284C9.92172 15.5786 10.9391 16 12 16C13.0609 16 14.0783 15.5786 14.8284 14.8284C15.5786 14.0783 16 13.0609 16 12Z" stroke="#0E0E0E" stroke-width="1.5" stroke-linecap="round" stroke-linejoin="round"/>
<path d="M9.69 2.1C9.7203 1.79852 9.8615 1.51905 10.0862 1.31579C10.3109 1.11254 10.6031 0.999996 10.9061 1H13.0939C13.3969 0.999996 13.6891 1.11254 13.9138 1.31579C14.1385 1.51905 14.2797 1.79852 14.31 2.1L14.3503 2.507C15.3012 2.74242 16.2114 3.11941 17.0502 3.62533L17.3668 3.36622C17.6014 3.17443 17.8988 3.07661 18.2014 3.09174C18.5041 3.10688 18.7903 3.23388 19.0046 3.44811L20.5519 4.99544C20.7661 5.20972 20.8931 5.49594 20.9083 5.79856C20.9234 6.10119 20.8256 6.39864 20.6338 6.63322L20.3747 6.951C20.8746 7.77722 21.2547 8.68533 21.493 9.64967L21.8988 9.69C22.2005 9.72001 22.4802 9.86109 22.6838 10.0858C22.8873 10.3106 23 10.6029 23 10.9061V13.0939C23 13.3969 22.8875 13.6891 22.6842 13.9138C22.481 14.1385 22.2015 14.2797 21.9 14.31L21.493 14.3503C21.2576 15.3012 20.8806 16.2114 20.3747 17.0502L20.6338 17.3668C20.8256 17.6014 20.9234 17.8988 20.9083 18.2014C20.8931 18.5041 20.7661 18.7903 20.5519 19.0046L19.0046 20.5519C18.7903 20.7661 18.5041 20.8931 18.2014 20.9083C17.8988 20.9234 17.6014 20.8256 17.3668 20.6338L17.049 20.3747C16.2105 20.8805 15.3008 21.2575 14.3503 21.493L14.31 21.8988C14.28 22.2005 14.1389 22.4802 13.9142 22.6838C13.6894 22.8873 13.3971 23 13.0939 23H10.9061C10.6031 23 10.3109 22.8875 10.0862 22.6842C9.8615 22.481 9.7203 22.2015 9.69 21.9L9.64967 21.493C8.69876 21.2576 7.78864 20.8806 6.94978 20.3747L6.63322 20.6338C6.39864 20.8256 6.10119 20.9234 5.79856 20.9083C5.49594 20.8931 5.20972 20.7661 4.99544 20.5519L3.44811 19.0033C3.23388 18.7891 3.10688 18.5028 3.09174 18.2002C3.07661 17.8976 3.17443 17.6001 3.36622 17.3656L3.62533 17.0478C3.11952 16.2093 2.74254 15.2996 2.507 14.3491L2.1 14.31C1.79852 14.2797 1.51905 14.1385 1.31579 13.9138C1.11254 13.6891 0.999996 13.3969 1 13.0939V10.9061C0.999996 10.6031 1.11254 10.3109 1.31579 10.0862C1.51905 9.8615 1.79852 9.7203 2.1 9.69L2.507 9.64967C2.74242 8.69876 3.11941 7.78864 3.62533 6.94978L3.36622 6.63322C3.17443 6.39864 3.07661 6.10119 3.09174 5.79856C3.10688 5.49594 3.23388 5.20972 3.44811 4.99544L4.99667 3.44811C5.21094 3.23388 5.49716 3.10688 5.79978 3.09174C6.10241 3.07661 6.39987 3.17443 6.63444 3.36622L6.95222 3.62533C7.7907 3.11952 8.70041 2.74254 9.65089 2.507L9.69 2.1Z" stroke="#0E0E0E" stroke-width="1.5" stroke-linecap="round" stroke-linejoin="round"/>
</g>
<defs>
<clipPath id="clip0_2805_8565">
<rect width="24" height="24" fill="white"/>
</clipPath>
</defs>
</svg>
