<svg preserveAspectRatio="none" width="100%" height="100%" overflow="visible" style="display: block;" viewBox="0 0 18.5 23.5" fill="none" xmlns="http://www.w3.org/2000/svg">
<path id="Shield" d="M8.60279 22.5303C8.78883 22.6728 9.01619 22.75 9.25 22.75C9.48381 22.75 9.71117 22.6728 9.89721 22.5303C11.8826 21.0307 17.75 16.1334 17.75 10.5481V4.52276C17.7512 4.36734 17.6952 4.21696 17.5927 4.10071C17.4902 3.98445 17.3485 3.91057 17.1951 3.89334C14.7636 3.64268 12.4333 2.783 10.4169 1.39277L9.67621 0.883124C9.55077 0.796414 9.40217 0.75 9.25 0.75C9.09783 0.75 8.94923 0.796414 8.82379 0.883124L8.08307 1.39277C6.06666 2.783 3.73636 3.64268 1.30495 3.89334C1.15148 3.91057 1.0098 3.98445 0.907302 4.10071C0.804806 4.21696 0.748768 4.36734 0.750021 4.52276V10.5481C0.750021 16.1334 6.61744 21.0307 8.60279 22.5278" stroke="#0E0E0E" stroke-width="1.5" stroke-linecap="round" stroke-linejoin="round"/>
</svg>
