<svg width="17" height="17" viewBox="0 0 17 17" fill="none" xmlns="http://www.w3.org/2000/svg">
<path d="M8.44801 15.8498C8.31745 15.9475 8.16075 16 8 16C7.83925 16 7.68255 15.9475 7.55199 15.8498C3.68867 12.9815 -0.411446 7.08158 3.73348 2.81831C4.87138 1.65237 6.40382 0.99927 8 1C9.60005 1 11.1353 1.65416 12.2665 2.81748C16.4114 7.08075 12.3113 12.9798 8.44801 15.8498Z" stroke="#0E0E0E" stroke-width="1.5" stroke-linecap="round" stroke-linejoin="round"/>
<path d="M8 9C8.53043 9 9.03914 8.78929 9.41421 8.41421C9.78929 8.03914 10 7.53043 10 7C10 6.46957 9.78929 5.96086 9.41421 5.58579C9.03914 5.21071 8.53043 5 8 5C7.46957 5 6.96086 5.21071 6.58579 5.58579C6.21071 5.96086 6 6.46957 6 7C6 7.53043 6.21071 8.03914 6.58579 8.41421C6.96086 8.78929 7.46957 9 8 9Z" stroke="#0E0E0E" stroke-width="1.5" stroke-linecap="round" stroke-linejoin="round"/>
</svg>
