<svg width="24" height="24" viewBox="0 0 24 24" fill="none" xmlns="http://www.w3.org/2000/svg">
<path d="M23.4091 6.49987H8.54559C8.22741 6.49987 7.95469 6.22715 7.95469 5.90896C7.95469 5.59078 8.22741 5.31805 8.54559 5.31805H23.4091C23.7273 5.31805 24 5.59078 24 5.90896C24 6.22715 23.7273 6.49987 23.4091 6.49987Z" fill="#0E0E0E"/>
<path d="M3.90907 6.49987H1.5909C1.27272 6.49987 1 6.22715 1 5.90896C1 5.59078 1.27272 5.31805 1.5909 5.31805H3.90907C4.22724 5.31805 4.49997 5.59078 4.49997 5.90896C4.49997 6.22715 4.2727 6.49987 3.90907 6.49987Z" fill="#0E0E0E"/>
<path d="M23.4089 12.0909H19.4998C19.1817 12.0909 18.9089 11.8181 18.9089 11.5C18.9089 11.1818 19.1817 10.9091 19.4998 10.9091H23.4089C23.7271 10.9091 23.9998 11.1818 23.9998 11.5C23.9998 11.8181 23.7271 12.0909 23.4089 12.0909Z" fill="#0E0E0E"/>
<path d="M14.8635 12.0909H1.5909C1.27272 12.0909 1 11.8181 1 11.5C1 11.1818 1.27272 10.9091 1.5909 10.9091H14.8635C15.1817 10.9091 15.4544 11.1818 15.4544 11.5C15.4544 11.8181 15.1817 12.0909 14.8635 12.0909Z" fill="#0E0E0E"/>
<path d="M23.4091 17.727H8.54559C8.22741 17.727 7.95469 17.4543 7.95469 17.1361C7.95469 16.8179 8.22741 16.5452 8.54559 16.5452H23.4091C23.7273 16.5452 24 16.8179 24 17.1361C24 17.4543 23.7273 17.727 23.4091 17.727Z" fill="#0E0E0E"/>
<path d="M3.90907 17.7272H1.5909C1.27272 17.7272 1 17.4545 1 17.1363C1 16.7726 1.27272 16.4999 1.5909 16.4999H3.90907C4.22724 16.4999 4.49997 16.7726 4.49997 17.0908C4.54542 17.4545 4.2727 17.7272 3.90907 17.7272Z" fill="#0E0E0E"/>
<path d="M6.22712 8.81807C4.63623 8.81807 3.31806 7.49988 3.31806 5.90897C3.31806 4.31806 4.63623 2.99988 6.22712 2.99988C7.81802 2.99988 9.13619 4.31806 9.13619 5.90897C9.13619 7.49988 7.86347 8.81807 6.22712 8.81807ZM6.22712 4.1817C5.27259 4.1817 4.49987 4.95443 4.49987 5.90897C4.49987 6.86352 5.27259 7.63625 6.22712 7.63625C7.18166 7.63625 7.95438 6.86352 7.95438 5.90897C7.95438 4.95443 7.18166 4.1817 6.22712 4.1817Z" fill="#0E0E0E"/>
<path d="M17.1816 14.4089C15.5907 14.4089 14.2726 13.0907 14.2726 11.4998C14.2726 9.90891 15.5907 8.59073 17.1816 8.59073C18.7725 8.59073 20.0907 9.90891 20.0907 11.4998C20.0907 13.0907 18.818 14.4089 17.1816 14.4089ZM17.1816 9.77255C16.2271 9.77255 15.4544 10.5453 15.4544 11.4998C15.4544 12.4544 16.2271 13.2271 17.1816 13.2271C18.1362 13.2271 18.9089 12.4544 18.9089 11.4998C18.9089 10.5453 18.1362 9.77255 17.1816 9.77255Z" fill="#0E0E0E"/>
<path d="M6.22712 20.0453C4.63623 20.0453 3.31806 18.7271 3.31806 17.1362C3.31806 15.4999 4.63623 14.2271 6.22712 14.2271C7.81802 14.2271 9.13619 15.5453 9.13619 17.1362C9.18164 18.7271 7.86347 20.0453 6.22712 20.0453ZM6.22712 15.409C5.27259 15.409 4.49987 16.1817 4.49987 17.1362C4.49987 18.0908 5.27259 18.8635 6.22712 18.8635C7.18166 18.8635 7.95438 18.0908 7.95438 17.1362C7.95438 16.1817 7.18166 15.409 6.22712 15.409Z" fill="#0E0E0E"/>
</svg>
