<svg width="44" height="44" viewBox="0 0 44 44" fill="none" xmlns="http://www.w3.org/2000/svg">
<rect width="44" height="44" rx="10" fill="white" fill-opacity="0.1"/>
<path d="M22.4761 10.0096C15.8535 9.74641 10.2718 14.9014 10.0096 21.524C9.74641 28.1465 14.9025 33.7271 21.524 33.9903C28.1466 34.2536 33.7272 29.0986 33.9904 22.476C34.2526 15.8535 29.0975 10.2718 22.4761 10.0096ZM27.5412 27.5894C27.392 27.8526 27.1013 27.9842 26.8184 27.9447C26.7317 27.9327 26.6451 27.9041 26.5639 27.8581C24.9779 26.9554 23.2493 26.3675 21.4264 26.1109C19.6035 25.8542 17.7795 25.943 16.0059 26.3741C15.621 26.4673 15.2338 26.2315 15.1406 25.8465C15.0473 25.4615 15.2831 25.0744 15.6681 24.9811C17.6183 24.5073 19.6232 24.4097 21.626 24.6916C23.6288 24.9735 25.5285 25.6195 27.2735 26.6121C27.6168 26.8084 27.7375 27.245 27.5422 27.5894H27.5412ZM29.1184 24.4393C28.8738 24.8912 28.3078 25.0601 27.8559 24.8155C26.0001 23.8119 23.9908 23.1527 21.8838 22.8566C19.7768 22.5605 17.6643 22.6405 15.6034 23.0935C15.4915 23.1177 15.3808 23.122 15.2733 23.1067C14.8993 23.054 14.579 22.7754 14.4934 22.3839C14.3827 21.8815 14.7007 21.3847 15.2031 21.2739C17.4812 20.7727 19.8163 20.6838 22.1437 21.0107C24.4701 21.3375 26.6911 22.0658 28.7422 23.1758C29.1952 23.4204 29.363 23.9852 29.1184 24.4382V24.4393ZM30.8667 20.8878C30.6364 21.3309 30.1571 21.5602 29.6898 21.4944C29.5637 21.4768 29.4397 21.4373 29.3202 21.3759C27.1595 20.2517 24.832 19.5091 22.4026 19.168C19.9731 18.8269 17.5305 18.8993 15.1438 19.3841C14.523 19.5102 13.9187 19.1088 13.7926 18.4891C13.6664 17.8683 14.0679 17.264 14.6876 17.1378C17.3309 16.6015 20.0334 16.5214 22.7217 16.8987C25.41 17.276 27.9854 18.0986 30.3786 19.3435C30.9402 19.6353 31.1585 20.3274 30.8667 20.8889V20.8878Z" fill="#1ED760"/>
</svg>
