<svg width="24" height="24" viewBox="0 0 24 24" fill="none" xmlns="http://www.w3.org/2000/svg">
<path d="M12.4761 0.00964577C5.85354 -0.253544 0.271844 4.90145 0.00964384 11.524C-0.253546 18.1465 4.90254 23.7271 11.524 23.9903C18.1466 24.2536 23.7272 19.0986 23.9904 12.476C24.2526 5.85355 19.0975 0.271846 12.4761 0.00964577ZM17.5412 17.5894C17.392 17.8526 17.1013 17.9842 16.8184 17.9447C16.7317 17.9327 16.6451 17.9041 16.5639 17.8581C14.9779 16.9554 13.2493 16.3675 11.4264 16.1109C9.60354 15.8542 7.77954 15.943 6.00594 16.3741C5.62104 16.4673 5.23384 16.2315 5.14064 15.8465C5.04734 15.4615 5.28314 15.0744 5.66814 14.9811C7.61834 14.5073 9.62324 14.4097 11.626 14.6916C13.6288 14.9735 15.5285 15.6195 17.2735 16.6121C17.6168 16.8084 17.7365 17.245 17.5412 17.5894ZM19.1184 14.4393C18.8738 14.8912 18.3078 15.0601 17.8559 14.8155C16.0001 13.8119 13.9908 13.1527 11.8838 12.8566C9.77684 12.5605 7.66434 12.6405 5.60344 13.0935C5.49154 13.1177 5.38084 13.122 5.27334 13.1067C4.89934 13.054 4.57904 12.7754 4.49344 12.3839C4.38274 11.8815 4.70074 11.3847 5.20314 11.2739C7.48124 10.7727 9.81634 10.6838 12.1437 11.0107C14.4701 11.3375 16.6911 12.0658 18.7422 13.1758C19.1952 13.4204 19.363 13.9852 19.1184 14.4382V14.4393ZM20.8667 10.8878C20.6364 11.3309 20.1571 11.5602 19.6898 11.4944C19.5637 11.4768 19.4397 11.4373 19.3202 11.3759C17.1595 10.2517 14.832 9.50915 12.4026 9.16805C9.97314 8.82695 7.53054 8.89935 5.14384 9.38415C4.52304 9.51025 3.91874 9.10885 3.79264 8.48915C3.66644 7.86835 4.06794 7.26405 4.68764 7.13785C7.33094 6.60155 10.0334 6.52145 12.7217 6.89875C15.41 7.27605 17.9854 8.09865 20.3786 9.34355C20.9402 9.63535 21.1585 10.3274 20.8667 10.8889V10.8878Z" fill="#1ED760"/>
</svg>
