<svg preserveAspectRatio="none" width="100%" height="100%" overflow="visible" style="display: block;" viewBox="0 0 23.5078 23.4962" fill="none" xmlns="http://www.w3.org/2000/svg">
<path id="Star" d="M12.7976 1.3615C12.6936 1.17603 12.5421 1.02161 12.3587 0.914133C12.1752 0.806654 11.9664 0.75 11.7538 0.75C11.5412 0.75 11.3324 0.806654 11.1489 0.914133C10.9655 1.02161 10.814 1.17603 10.71 1.3615C10.4656 1.80638 10.2305 2.25696 10.0048 2.71325C9.29368 4.1566 8.6891 5.65003 8.19587 7.18159C8.02598 7.70835 7.52242 8.07379 6.94553 8.08968C5.19678 8.13565 3.45373 8.30926 1.73027 8.60911C0.784261 8.77533 0.428592 9.85331 1.10082 10.5108C1.25401 10.6616 1.40882 10.8103 1.56527 10.9569C2.73502 12.0616 3.97182 13.0931 5.26863 14.0454C5.71719 14.3742 5.90175 14.9376 5.73063 15.4534C5.07881 17.4126 4.61231 19.4287 4.33729 21.4752C4.21507 22.3979 5.20263 23.0493 6.06064 22.6093C7.76203 21.737 9.38898 20.7265 10.9251 19.5881C11.1657 19.4125 11.4559 19.3178 11.7538 19.3178C12.0517 19.3178 12.3419 19.4125 12.5825 19.5881C14.1183 20.727 15.7453 21.7375 17.4469 22.6093C18.3037 23.0493 19.2925 22.3979 19.1703 21.4752C19.123 21.1289 19.0713 20.7846 19.0151 20.4424C18.7327 18.7497 18.3188 17.0817 17.7769 15.4534C17.6058 14.9376 17.7892 14.3742 18.239 14.0454C19.7102 12.9674 21.103 11.7863 22.4068 10.5108C23.079 9.85331 22.7245 8.77533 21.7773 8.60911C20.0541 8.30751 18.3109 8.13389 16.562 8.08968C16.2855 8.08528 16.0171 7.99572 15.7934 7.83322C15.5696 7.67071 15.4014 7.44316 15.3117 7.18159C14.6623 5.16579 13.8204 3.21596 12.7976 1.3615Z" stroke="#0E0E0E" stroke-width="1.5" stroke-linecap="round" stroke-linejoin="round"/>
</svg>
