<svg preserveAspectRatio="none" width="100%" height="100%" overflow="visible" style="display: block;" viewBox="0 0 23.5 20.5" fill="none" xmlns="http://www.w3.org/2000/svg">
<path id="TwoUsers" d="M22.75 19.75C22.75 17.1881 20.7089 13.5376 17.8611 12.7298M15.4167 19.75C15.4167 16.5004 12.1338 12.3952 8.08333 12.3952C4.03289 12.3952 0.75 16.5004 0.75 19.75M15.4167 8.10484C16.3891 8.10484 17.3218 7.7174 18.0094 7.02775C18.697 6.3381 19.0833 5.40273 19.0833 4.42742C19.0833 3.45211 18.697 2.51674 18.0094 1.82709C17.3218 1.13744 16.3891 0.75 15.4167 0.75M11.75 4.42742C11.75 5.40273 11.3637 6.3381 10.6761 7.02775C9.98843 7.7174 9.05579 8.10484 8.08333 8.10484C7.11087 8.10484 6.17824 7.7174 5.49061 7.02775C4.80298 6.3381 4.41667 5.40273 4.41667 4.42742C4.41667 3.45211 4.80298 2.51674 5.49061 1.82709C6.17824 1.13744 7.11087 0.75 8.08333 0.75C9.05579 0.75 9.98843 1.13744 10.6761 1.82709C11.3637 2.51674 11.75 3.45211 11.75 4.42742Z" stroke="#0E0E0E" stroke-width="1.5" stroke-linecap="round" stroke-linejoin="round"/>
</svg>
