<svg preserveAspectRatio="none" width="100%" height="100%" overflow="visible" style="display: block;" viewBox="0 0 22.5 23.5" fill="none" xmlns="http://www.w3.org/2000/svg">
<path id="UserPlus" d="M21.75 22.75C21.085 9.91712 1.41502 9.91712 0.750018 22.75M8.45002 20H14.05M11.25 17.25V22.75M15.45 4.875C15.45 5.96902 15.0075 7.01823 14.2199 7.79182C13.4322 8.5654 12.3639 9 11.25 9C10.1361 9 9.06782 8.5654 8.28017 7.79182C7.49252 7.01823 7.05002 5.96902 7.05002 4.875C7.05002 3.78098 7.49252 2.73177 8.28017 1.95818C9.06782 1.1846 10.1361 0.75 11.25 0.75C12.3639 0.75 13.4322 1.1846 14.2199 1.95818C15.0075 2.73177 15.45 3.78098 15.45 4.875Z" stroke="#0E0E0E" stroke-width="1.5" stroke-linecap="round" stroke-linejoin="round"/>
</svg>
