<svg preserveAspectRatio="none" width="100%" height="100%" overflow="visible" style="display: block;" viewBox="0 0 21.5 23.5" fill="none" xmlns="http://www.w3.org/2000/svg">
<path id="User" d="M20.75 22.75C20.1167 9.91712 1.38335 9.91712 0.750017 22.75M14.75 4.875C14.75 5.96902 14.3286 7.01823 13.5784 7.79182C12.8283 8.5654 11.8109 9 10.75 9C9.68915 9 8.67173 8.5654 7.92159 7.79182C7.17144 7.01823 6.75002 5.96902 6.75002 4.875C6.75002 3.78098 7.17144 2.73177 7.92159 1.95818C8.67173 1.1846 9.68915 0.75 10.75 0.75C11.8109 0.75 12.8283 1.1846 13.5784 1.95818C14.3286 2.73177 14.75 3.78098 14.75 4.875Z" stroke="#0E0E0E" stroke-width="1.5" stroke-linecap="round" stroke-linejoin="round"/>
</svg>
