<svg width="24" height="24" viewBox="0 0 24 24" fill="none" xmlns="http://www.w3.org/2000/svg">
<path d="M16 5.125C16 6.21902 15.5786 7.26823 14.8284 8.04182C14.0783 8.8154 13.0609 9.25 12 9.25C10.9391 9.25 9.92172 8.8154 9.17157 8.04182C8.42143 7.26823 8 6.21902 8 5.125C8 4.03098 8.42143 2.98177 9.17157 2.20818C9.92172 1.4346 10.9391 1 12 1C13.0609 1 14.0783 1.4346 14.8284 2.20818C15.5786 2.98177 16 4.03098 16 5.125ZM22 23C21.3667 10.1671 2.63333 10.1671 2 23Z" fill="#CC2486"/>
<path d="M22 23C21.3667 10.1671 2.63333 10.1671 2 23M16 5.125C16 6.21902 15.5786 7.26823 14.8284 8.04182C14.0783 8.8154 13.0609 9.25 12 9.25C10.9391 9.25 9.92172 8.8154 9.17157 8.04182C8.42143 7.26823 8 6.21902 8 5.125C8 4.03098 8.42143 2.98177 9.17157 2.20818C9.92172 1.4346 10.9391 1 12 1C13.0609 1 14.0783 1.4346 14.8284 2.20818C15.5786 2.98177 16 4.03098 16 5.125Z" stroke="#CC2486" stroke-width="1.5" stroke-linecap="round" stroke-linejoin="round"/>
</svg>
