<svg preserveAspectRatio="none" width="100%" height="100%" overflow="visible" style="display: block;" viewBox="0 0 23.5 15.5" fill="none" xmlns="http://www.w3.org/2000/svg">
<path id="Video" d="M0.75 12.3152V3.18478C0.75 2.53904 1.00754 1.91974 1.46596 1.46313C1.92438 1.00652 2.54614 0.75 3.19444 0.75H13.5833C14.2316 0.75 14.8534 1.00652 15.3118 1.46313C15.7702 1.91974 16.0278 2.53904 16.0278 3.18478V12.3152C16.0278 12.961 15.7702 13.5803 15.3118 14.0369C14.8534 14.4935 14.2316 14.75 13.5833 14.75H3.19444C2.54614 14.75 1.92438 14.4935 1.46596 14.0369C1.00754 13.5803 0.75 12.961 0.75 12.3152ZM21.7331 1.65209L16.8442 5.98965C16.7798 6.04664 16.7282 6.11656 16.6928 6.19482C16.6574 6.27308 16.639 6.35791 16.6389 6.44374V8.60826C16.639 8.69409 16.6574 8.77892 16.6928 8.85718C16.7282 8.93544 16.7798 9.00536 16.8442 9.06235L21.7331 13.3999C21.8212 13.4778 21.93 13.5287 22.0464 13.5465C22.1629 13.5642 22.282 13.5481 22.3894 13.5C22.4969 13.4518 22.5881 13.3738 22.652 13.2753C22.716 13.1768 22.75 13.0619 22.75 12.9446V2.10739C22.75 1.99006 22.716 1.87522 22.652 1.77669C22.5881 1.67816 22.4969 1.60015 22.3894 1.55205C22.282 1.50394 22.1629 1.48779 22.0464 1.50554C21.93 1.52329 21.8212 1.57418 21.7331 1.65209Z" stroke="#0E0E0E" stroke-width="1.5" stroke-linecap="round" stroke-linejoin="round"/>
</svg>
