<svg preserveAspectRatio="none" width="100%" height="100%" overflow="visible" style="display: block;" viewBox="0 0 23.5 23.5" fill="none" xmlns="http://www.w3.org/2000/svg">
<path id="ExternalLink" d="M22.75 0.75H14.5M22.75 0.75V9M22.75 0.75L12.6667 10.8333M8.57222 0.75C5.83444 0.75 4.46556 0.75 3.41933 1.28289C2.49947 1.7516 1.7516 2.49947 1.28289 3.41933C0.75 4.46556 0.75 5.83444 0.75 8.57222V14.9278C0.75 17.6656 0.75 19.0344 1.28289 20.0807C1.7516 21.0005 2.49947 21.7484 3.41933 22.2171C4.46556 22.75 5.83444 22.75 8.57222 22.75H14.9278C17.6656 22.75 19.0344 22.75 20.0807 22.2171C21.0005 21.7484 21.7484 21.0005 22.2171 20.0807C22.75 19.0344 22.75 17.6656 22.75 14.9278V13.5833" stroke="var(--stroke-0, #0E0E0E)" stroke-width="1.5" stroke-linecap="round" stroke-linejoin="round"/>
</svg>
