<svg preserveAspectRatio="none" width="100%" height="100%" overflow="visible" style="display: block;" viewBox="0 0 34.5 34.5" fill="none" xmlns="http://www.w3.org/2000/svg">
<path id="MediumSend" d="M20.9186 13.5813L15.4175 19.0818M32.4489 0.80366C32.6229 0.743621 32.8103 0.73374 32.9897 0.775147C33.169 0.816554 33.3331 0.907578 33.4632 1.03782C33.5932 1.16805 33.684 1.33225 33.7252 1.51164C33.7663 1.69103 33.7562 1.87838 33.6959 2.05227L22.833 33.0934C22.768 33.2789 22.6488 33.4406 22.4907 33.5576C22.3326 33.6745 22.1431 33.7413 21.9466 33.7492C21.7501 33.7571 21.5558 33.7058 21.3889 33.6019C21.2219 33.4981 21.09 33.3464 21.0103 33.1667L15.1077 19.8885C15.0083 19.6677 14.8316 19.4909 14.6107 19.3916L1.33107 13.4878C1.15191 13.4078 1.00085 13.2759 0.897411 13.1092C0.793969 12.9425 0.742898 12.7486 0.750795 12.5526C0.758693 12.3566 0.825195 12.1674 0.941712 12.0096C1.05823 11.8517 1.21941 11.7324 1.40442 11.6671L32.4489 0.80366Z" stroke="var(--stroke-0, #0E0E0E)" stroke-width="1.5" stroke-linecap="round" stroke-linejoin="round"/>
</svg>
