<svg preserveAspectRatio="none" width="100%" height="100%" overflow="visible" style="display: block;" viewBox="0 0 10.5 10.5" fill="none" xmlns="http://www.w3.org/2000/svg">
<path id="Instagram" d="M9.70141 4.5905C9.78802 5.17506 9.75864 5.77097 9.61495 6.34418C9.47127 6.91739 9.21608 7.45669 8.86397 7.93128C8.51186 8.40587 8.06973 8.80646 7.5628 9.11018C7.05588 9.4139 6.49409 9.6148 5.90953 9.70141C5.32496 9.78802 4.72906 9.75864 4.15585 9.61495C3.58264 9.47127 3.04334 9.21608 2.56875 8.86397C1.61026 8.15286 0.973527 7.09011 0.798613 5.90953C0.623699 4.72894 0.924935 3.52723 1.63605 2.56874C2.34717 1.61026 3.40991 0.973527 4.5905 0.798613C5.77108 0.623699 6.9728 0.924934 7.93128 1.63605C8.88976 2.34717 9.5265 3.40991 9.70141 4.5905Z" stroke="var(--stroke-0, #0E0E0E)" stroke-width="1.5" stroke-linecap="round" stroke-linejoin="round"/>
</svg>
