<svg preserveAspectRatio="none" width="100%" height="100%" overflow="visible" style="display: block;" viewBox="0 0 22.5 22.4994" fill="none" xmlns="http://www.w3.org/2000/svg">
<g id="Edit">
<path id="Edit_2" d="M8.37114 10.2588C8.17386 10.4561 8.0174 10.6904 7.91071 10.9482C7.80402 11.206 7.74919 11.4823 7.74937 11.7613V14.7501H10.7568C11.3202 14.7501 11.8615 14.5261 12.2605 14.1271L21.1263 5.25658C21.324 5.05936 21.4809 4.82508 21.5879 4.56715C21.6949 4.30922 21.75 4.03272 21.75 3.75347C21.75 3.47422 21.6949 3.19771 21.5879 2.93978C21.4809 2.68186 21.324 2.44757 21.1263 2.25035L20.2502 1.37427C20.053 1.17639 19.8186 1.01939 19.5606 0.912268C19.3026 0.805143 19.0259 0.75 18.7465 0.75C18.4671 0.75 18.1905 0.805143 17.9325 0.912268C17.6744 1.01939 17.4401 1.17639 17.2428 1.37427L8.37114 10.2588Z" stroke="var(--stroke-0, #0E0E0E)" stroke-width="1.5" stroke-linecap="round" stroke-linejoin="round"/>
<path id="Edit_3" d="M21.7481 11.2503C21.7481 16.2 21.7481 18.6743 20.2106 20.2118C18.673 21.7494 16.1976 21.7494 11.249 21.7494C6.3005 21.7494 3.82505 21.7494 2.28753 20.2118C0.75 18.6743 0.75 16.1989 0.75 11.2503C0.75 6.30178 0.75 3.82634 2.28753 2.28881C3.82505 0.751281 6.3005 0.751282 11.249 0.751282" stroke="var(--stroke-0, #0E0E0E)" stroke-width="1.5" stroke-linecap="round" stroke-linejoin="round"/>
</g>
</svg>
