<svg preserveAspectRatio="none" width="100%" height="100%" overflow="visible" style="display: block;" viewBox="0 0 24 24" fill="none" xmlns="http://www.w3.org/2000/svg">
<path id="Image" d="M0.75 8.75C0.75 5.95 0.75 4.55 1.295 3.48C1.77436 2.53923 2.53923 1.77436 3.48 1.295C4.55 0.75 5.95 0.75 8.75 0.75H15.25C18.05 0.75 19.45 0.75 20.52 1.295C21.4608 1.77436 22.2256 2.53923 22.705 3.48C23.25 4.55 23.25 5.95 23.25 8.75V15.25C23.25 18.05 23.25 19.45 22.705 20.52C22.2256 21.4608 21.4608 22.2256 20.52 22.705C19.45 23.25 18.05 23.25 15.25 23.25H8.75C5.95 23.25 4.55 23.25 3.48 22.705C2.53923 22.2256 1.77436 21.4608 1.295 20.52C0.75 19.45 0.75 18.05 0.75 15.25V8.75Z" stroke="var(--stroke-0, #0E0E0E)" stroke-width="1.5" stroke-linecap="round" stroke-linejoin="round"/>
</svg>
