<svg preserveAspectRatio="none" width="100%" height="100%" overflow="visible" style="display: block;" viewBox="0 0 34.5078 34.4962" fill="none" xmlns="http://www.w3.org/2000/svg">
<path id="MediumStar" d="M18.8194 1.66725C18.6634 1.38905 18.4362 1.15742 18.161 0.996199C17.8858 0.834982 17.5726 0.75 17.2537 0.75C16.9348 0.75 16.6216 0.834982 16.3464 0.996199C16.0712 1.15742 15.844 1.38905 15.688 1.66725C15.3213 2.33457 14.9687 3.01044 14.6302 3.69487C13.5635 5.85991 12.6567 8.10005 11.9168 10.3974C11.662 11.1875 10.9066 11.7357 10.0413 11.7595C7.41819 11.8285 4.8036 12.0889 2.21842 12.5387C0.799404 12.788 0.2659 14.405 1.27424 15.3913C1.50402 15.6174 1.73624 15.8404 1.97091 16.0604C3.72554 17.7175 5.58074 19.2646 7.52596 20.6931C8.19879 21.1863 8.47563 22.0315 8.21896 22.8051C7.24122 25.744 6.54148 28.7681 6.12895 31.8377C5.94561 33.2219 7.42696 34.199 8.71397 33.539C11.2661 32.2305 13.7065 30.7148 16.0107 29.0071C16.3716 28.7437 16.8069 28.6017 17.2537 28.6017C17.7005 28.6017 18.1358 28.7437 18.4967 29.0071C20.8004 30.7155 23.2409 32.2312 25.7934 33.539C27.0786 34.199 28.5618 33.2219 28.3785 31.8377C28.3076 31.3183 28.2299 30.8019 28.1456 30.2886C27.7221 27.7496 27.1011 25.2475 26.2884 22.8051C26.0318 22.0315 26.3068 21.1863 26.9814 20.6931C29.1883 19.0762 31.2775 17.3044 33.2332 15.3913C34.2415 14.405 33.7098 12.788 32.289 12.5387C29.7042 12.0863 27.0894 11.8258 24.4661 11.7595C24.0513 11.7529 23.6487 11.6186 23.3131 11.3748C22.9774 11.1311 22.7251 10.7897 22.5906 10.3974C21.6165 7.37368 20.3536 4.44893 18.8194 1.66725Z" stroke="var(--stroke-0, #0E0E0E)" stroke-width="1.5" stroke-linecap="round" stroke-linejoin="round"/>
</svg>
