<svg preserveAspectRatio="none" width="100%" height="100%" overflow="visible" style="display: block;" viewBox="0 0 23.5 18.5" fill="none" xmlns="http://www.w3.org/2000/svg">
<path id="Ticket" d="M11.75 8.94643V9.55357M11.75 4.39286V5M11.75 13.5V14.1071M20.3056 17.75C20.9539 17.75 21.5756 17.4941 22.034 17.0387C22.4925 16.5832 22.75 15.9655 22.75 15.3214V11.6786C22.1017 11.6786 21.4799 11.4227 21.0215 10.9673C20.5631 10.5118 20.3056 9.8941 20.3056 9.25C20.3056 8.6059 20.5631 7.98819 21.0215 7.53274C21.4799 7.0773 22.1017 6.82143 22.75 6.82143V3.17857C22.75 2.53447 22.4925 1.91676 22.034 1.46131C21.5756 1.00587 20.9539 0.75 20.3056 0.75H3.19444C2.54614 0.75 1.92438 1.00587 1.46596 1.46131C1.00754 1.91676 0.75 2.53447 0.75 3.17857V6.82143C1.39831 6.82143 2.02006 7.0773 2.47848 7.53274C2.93691 7.98819 3.19444 8.6059 3.19444 9.25C3.19444 9.8941 2.93691 10.5118 2.47848 10.9673C2.02006 11.4227 1.39831 11.6786 0.75 11.6786V15.3214C0.75 15.9655 1.00754 16.5832 1.46596 17.0387C1.92438 17.4941 2.54614 17.75 3.19444 17.75H20.3056Z" stroke="var(--stroke-0, #0E0E0E)" stroke-width="1.5" stroke-linecap="round" stroke-linejoin="round"/>
</svg>
