<svg preserveAspectRatio="none" width="100%" height="100%" overflow="visible" style="display: block;" viewBox="0 0 23.5 23.5" fill="none" xmlns="http://www.w3.org/2000/svg">
<path id="Building" d="M0.75 22.75H22.75M2.72436 22.75V6.2258C2.72436 4.3085 2.72436 3.3504 3.09328 2.6178C3.41254 1.98034 3.9302 1.45753 4.57236 1.124C5.29667 0.75 6.24436 0.75 8.13974 0.75H8.59103C10.4864 0.75 11.4341 0.75 12.1584 1.124C12.8007 1.45782 13.3184 1.98104 13.6375 2.6189C14.0064 3.3504 14.0064 4.3085 14.0064 6.2258V22.75M9.49359 5.15H7.23718M9.49359 9.55H7.23718M9.49359 13.95H7.23718M20.55 22.75V11.1384C20.55 8.6029 19.6497 7.6756 17.25 7.6756H14.0064" stroke="var(--stroke-0, #0E0E0E)" stroke-width="1.5" stroke-linecap="round" stroke-linejoin="round"/>
</svg>
