<svg preserveAspectRatio="none" width="100%" height="100%" overflow="visible" style="display: block;" viewBox="0 0 24 24" fill="none" xmlns="http://www.w3.org/2000/svg">
<path id="SpotifyLogo" d="M19.0984 10.6382C15.2303 8.34104 8.84992 8.12986 5.15732 9.25057C4.56419 9.43048 3.9372 9.09581 3.75762 8.50279C3.57793 7.90944 3.91227 7.28277 4.50562 7.10255C8.7446 5.8159 15.7909 6.06438 20.244 8.70773C20.7775 9.02445 20.9522 9.71323 20.6362 10.2456C20.3198 10.779 19.6304 10.955 19.0984 10.6382ZM18.9716 14.0406C18.7003 14.481 18.1245 14.6191 17.6847 14.3487C14.46 12.3665 9.54246 11.7922 5.72724 12.9503C5.23255 13.0996 4.70992 12.8209 4.55967 12.3269C4.48805 12.0895 4.5135 11.8333 4.63045 11.6146C4.7474 11.3959 4.9463 11.2325 5.18354 11.1602C9.54182 9.83758 14.96 10.4781 18.6638 12.7543C19.1036 13.0252 19.242 13.6012 18.9716 14.0406ZM17.5033 17.3081C17.4522 17.3921 17.385 17.4651 17.3056 17.5231C17.2263 17.581 17.1362 17.6228 17.0407 17.6459C16.9452 17.669 16.846 17.673 16.7489 17.6578C16.6518 17.6425 16.5587 17.6083 16.4749 17.557C13.657 15.8348 10.1101 15.4458 5.93305 16.4C5.83734 16.4219 5.73825 16.4247 5.64145 16.4083C5.54465 16.3918 5.45204 16.3565 5.36889 16.3043C5.28575 16.2521 5.2137 16.184 5.15688 16.1039C5.10005 16.0239 5.05956 15.9334 5.0377 15.8377C5.0157 15.7419 5.0128 15.6428 5.02916 15.5459C5.04553 15.4491 5.08084 15.3564 5.13309 15.2732C5.18533 15.19 5.25347 15.1179 5.33361 15.0611C5.41374 15.0043 5.5043 14.9638 5.6001 14.942C10.1712 13.8972 14.0921 14.3468 17.2551 16.2796C17.339 16.3308 17.4119 16.3981 17.4698 16.4775C17.5276 16.5569 17.5693 16.6469 17.5923 16.7424C17.6154 16.8379 17.6194 16.9371 17.6041 17.0341C17.5889 17.1312 17.5545 17.2243 17.5033 17.3081ZM11.9998 0C5.37269 0 0 5.37248 0 11.9998C0 18.6277 5.37269 24 11.9999 24C18.6274 24 24 18.6277 24 11.9998C24 5.37258 18.6274 0 11.9998 0Z" fill="var(--fill-0, #1DB954)"/>
</svg>
