<svg preserveAspectRatio="none" width="100%" height="100%" overflow="visible" style="display: block;" viewBox="0 0 60.5 57.5" fill="none" xmlns="http://www.w3.org/2000/svg">
<path id="LargeMusic" d="M19.1875 47.3613C19.1875 52.5465 15.0575 56.75 9.97038 56.75C4.87672 56.75 0.75 52.5465 0.75 47.3613C0.75 42.1794 4.88 37.9759 9.97038 37.9759C15.0608 37.9759 19.1875 42.1761 19.1875 47.3613ZM19.1875 47.3613V7.21058C19.1875 5.49756 20.4789 4.06784 22.167 3.91301L56.1739 0.763673C56.629 0.721869 57.0878 0.77618 57.5208 0.923119C57.9538 1.07006 58.3515 1.30638 58.6882 1.6169C59.025 1.92743 59.2934 2.3053 59.4762 2.72626C59.6591 3.14721 59.7523 3.60194 59.75 4.06125V43.6058C59.75 48.7877 55.62 52.9945 50.5329 52.9945C45.4392 52.9945 41.3125 48.7877 41.3125 43.6058C41.3125 38.4239 45.4425 34.2171 50.5329 34.2171C55.6232 34.2171 59.75 38.4272 59.75 43.6124" stroke="var(--stroke-0, #5D646F)" stroke-width="1.5" stroke-linecap="round" stroke-linejoin="round"/>
</svg>
