<svg preserveAspectRatio="none" width="100%" height="100%" overflow="visible" style="display: block;" viewBox="0 0 23.5 23.5" fill="none" xmlns="http://www.w3.org/2000/svg">
<path id="Key" d="M15.8591 8.16278L17.4724 9.77611C18.6886 10.9922 19.1163 8.74944 20.814 8.46833C21.3836 8.373 21.8859 8.17989 22.101 7.54922C22.2917 6.99189 22.0753 6.46756 21.3994 5.79167L19.6944 4.08789M10.5278 12.9722L22.75 0.75M6.25 22.75C6.97227 22.75 7.68747 22.6077 8.35476 22.3313C9.02205 22.0549 9.62836 21.6498 10.1391 21.1391C10.6498 20.6284 11.0549 20.0221 11.3313 19.3548C11.6077 18.6875 11.75 17.9723 11.75 17.25C11.75 16.5277 11.6077 15.8125 11.3313 15.1452C11.0549 14.478 10.6498 13.8716 10.1391 13.3609C9.62836 12.8502 9.02205 12.4451 8.35476 12.1687C7.68747 11.8923 6.97227 11.75 6.25 11.75C4.79131 11.75 3.39236 12.3295 2.36091 13.3609C1.32946 14.3924 0.75 15.7913 0.75 17.25C0.75 18.7087 1.32946 20.1076 2.36091 21.1391C3.39236 22.1705 4.79131 22.75 6.25 22.75Z" stroke="var(--stroke-0, #0E0E0E)" stroke-width="1.5" stroke-linecap="round" stroke-linejoin="round"/>
</svg>
