<svg preserveAspectRatio="none" width="100%" height="100%" overflow="visible" style="display: block;" viewBox="0 0 23.5 23.5" fill="none" xmlns="http://www.w3.org/2000/svg">
<path id="CircleComment" d="M11.75 22.75C13.9256 22.75 16.0523 22.1049 17.8613 20.8962C19.6702 19.6875 21.0801 17.9695 21.9127 15.9595C22.7452 13.9495 22.9631 11.7378 22.5386 9.60401C22.1142 7.47022 21.0665 5.51021 19.5282 3.97183C17.9898 2.43345 16.0298 1.3858 13.896 0.961367C11.7622 0.53693 9.55047 0.754766 7.54048 1.58733C5.53049 2.41989 3.81253 3.82979 2.60383 5.63873C1.39514 7.44767 0.75 9.57441 0.75 11.75C0.75 13.51 1.16311 15.1722 1.89889 16.6474C2.45256 17.7609 1.68256 19.263 1.38922 20.3593C1.32424 20.6018 1.32422 20.8571 1.38919 21.0996C1.45415 21.3421 1.58181 21.5632 1.75931 21.7407C1.93682 21.9182 2.15792 22.0458 2.4004 22.1108C2.64288 22.1758 2.89819 22.1758 3.14067 22.1108C4.237 21.8174 5.73911 21.0474 6.85255 21.6023C8.37448 22.358 10.0508 22.7508 11.75 22.75Z" fill="var(--fill-0, #CC2486)" stroke="var(--stroke-0, #CC2486)" stroke-width="1.5" stroke-linecap="round" stroke-linejoin="round"/>
</svg>
