<svg preserveAspectRatio="none" width="100%" height="100%" overflow="visible" style="display: block;" viewBox="0 0 16.5 15.5" fill="none" xmlns="http://www.w3.org/2000/svg">
<path id="AppleMusicLogo" d="M5.4375 12.4028C5.4375 13.6991 4.3875 14.75 3.09417 14.75C1.79917 14.75 0.75 13.6991 0.75 12.4028C0.75 11.1073 1.8 10.0565 3.09417 10.0565C4.38833 10.0565 5.4375 11.1065 5.4375 12.4028ZM5.4375 12.4028V2.36515C5.4375 1.93689 5.76583 1.57946 6.195 1.54075L14.8408 0.753418C14.9565 0.742967 15.0732 0.756545 15.1833 0.79328C15.2933 0.830015 15.3944 0.889094 15.4801 0.966726C15.5657 1.04436 15.6339 1.13883 15.6804 1.24406C15.7269 1.3493 15.7506 1.46298 15.75 1.57781V11.464C15.75 12.7594 14.7 13.8111 13.4067 13.8111C12.1117 13.8111 11.0625 12.7594 11.0625 11.464C11.0625 10.1685 12.1125 9.11678 13.4067 9.11678C14.7008 9.11678 15.75 10.1693 15.75 11.4656" stroke="var(--stroke-0, #FCFCFC)" stroke-width="1.5" stroke-linecap="round" stroke-linejoin="round"/>
</svg>
