<svg preserveAspectRatio="none" width="100%" height="100%" overflow="visible" style="display: block;" viewBox="0 0 23.5 23.5" fill="none" xmlns="http://www.w3.org/2000/svg">
<path id="Settings" d="M9.44 1.85C9.4703 1.54852 9.6115 1.26905 9.83621 1.06579C10.0609 0.862538 10.3531 0.749996 10.6561 0.75H12.8439C13.1469 0.749996 13.4391 0.862538 13.6638 1.06579C13.8885 1.26905 14.0297 1.54852 14.06 1.85L14.1003 2.257C15.0512 2.49242 15.9614 2.86941 16.8002 3.37533L17.1168 3.11622C17.3514 2.92443 17.6488 2.82661 17.9514 2.84174C18.2541 2.85688 18.5403 2.98388 18.7546 3.19811L20.3019 4.74544C20.5161 4.95972 20.6431 5.24594 20.6583 5.54856C20.6734 5.85119 20.5756 6.14864 20.3838 6.38322L20.1247 6.701C20.6246 7.52722 21.0047 8.43533 21.243 9.39967L21.6488 9.44C21.9505 9.47001 22.2302 9.61109 22.4338 9.83583C22.6373 10.0606 22.75 10.3529 22.75 10.6561V12.8439C22.75 13.1469 22.6375 13.4391 22.4342 13.6638C22.231 13.8885 21.9515 14.0297 21.65 14.06L21.243 14.1003C21.0076 15.0512 20.6306 15.9614 20.1247 16.8002L20.3838 17.1168C20.5756 17.3514 20.6734 17.6488 20.6583 17.9514C20.6431 18.2541 20.5161 18.5403 20.3019 18.7546L18.7546 20.3019C18.5403 20.5161 18.2541 20.6431 17.9514 20.6583C17.6488 20.6734 17.3514 20.5756 17.1168 20.3838L16.799 20.1247C15.9605 20.6305 15.0508 21.0075 14.1003 21.243L14.06 21.6488C14.03 21.9505 13.8889 22.2302 13.6642 22.4338C13.4394 22.6373 13.1471 22.75 12.8439 22.75H10.6561C10.3531 22.75 10.0609 22.6375 9.83621 22.4342C9.6115 22.231 9.4703 21.9515 9.44 21.65L9.39967 21.243C8.44876 21.0076 7.53864 20.6306 6.69978 20.1247L6.38322 20.3838C6.14864 20.5756 5.85119 20.6734 5.54856 20.6583C5.24594 20.6431 4.95972 20.5161 4.74544 20.3019L3.19811 18.7533C2.98388 18.5391 2.85688 18.2528 2.84174 17.9502C2.82661 17.6476 2.92443 17.3501 3.11622 17.1156L3.37533 16.7978C2.86952 15.9593 2.49254 15.0496 2.257 14.0991L1.85 14.06C1.54852 14.0297 1.26905 13.8885 1.06579 13.6638C0.862538 13.4391 0.749996 13.1469 0.75 12.8439V10.6561C0.749996 10.3531 0.862538 10.0609 1.06579 9.83621C1.26905 9.6115 1.54852 9.4703 1.85 9.44L2.257 9.39967C2.49242 8.44876 2.86941 7.53864 3.37533 6.69978L3.11622 6.38322C2.92443 6.14864 2.82661 5.85119 2.84174 5.54856C2.85688 5.24594 2.98388 4.95972 3.19811 4.74544L4.74667 3.19811C4.96094 2.98388 5.24716 2.85688 5.54978 2.84174C5.85241 2.82661 6.14987 2.92443 6.38444 3.11622L6.70222 3.37533C7.5407 2.86952 8.45041 2.49254 9.40089 2.257L9.44 1.85Z" stroke="var(--stroke-0, #0E0E0E)" stroke-width="1.5" stroke-linecap="round" stroke-linejoin="round"/>
</svg>
