<svg preserveAspectRatio="none" width="100%" height="100%" overflow="visible" style="display: block;" viewBox="0 0 22.5 22.5" fill="none" xmlns="http://www.w3.org/2000/svg">
<path id="Calendar" d="M16.5 3.08333V0.75M6 3.08333V0.75M1.04167 6.58333H21.4583M0.75 8.968C0.75 6.5005 0.75 5.26617 1.25867 4.3235C1.71862 3.48269 2.43233 2.80859 3.298 2.39733C4.29667 1.91667 5.60333 1.91667 8.21667 1.91667H14.2833C16.8967 1.91667 18.2033 1.91667 19.202 2.39733C20.0805 2.81967 20.7933 3.494 21.2413 4.32233C21.75 5.26733 21.75 6.50167 21.75 8.96917V14.6998C21.75 17.1673 21.75 18.4017 21.2413 19.3443C20.7814 20.1851 20.0677 20.8592 19.202 21.2705C18.2033 21.75 16.8967 21.75 14.2833 21.75H8.21667C5.60333 21.75 4.29667 21.75 3.298 21.2693C2.4325 20.8584 1.71881 20.1847 1.25867 19.3443C0.75 18.3993 0.75 17.165 0.75 14.6975V8.968Z" stroke="var(--stroke-0, #0E0E0E)" stroke-width="1.5" stroke-linecap="round" stroke-linejoin="round"/>
</svg>
