<svg preserveAspectRatio="none" width="100%" height="100%" overflow="visible" style="display: block;" viewBox="0 0 19.5338 19.625" fill="none" xmlns="http://www.w3.org/2000/svg">
<path id="Image" d="M18.7838 5.7375C10.5212 4.6025 3.39625 10.7375 3.875 18.875M0.75 3.25C0.75 3.91304 1.01339 4.54893 1.48223 5.01777C1.95107 5.48661 2.58696 5.75 3.25 5.75C3.91304 5.75 4.54893 5.48661 5.01777 5.01777C5.48661 4.54893 5.75 3.91304 5.75 3.25C5.75 2.58696 5.48661 1.95107 5.01777 1.48223C4.54893 1.01339 3.91304 0.75 3.25 0.75C2.58696 0.75 1.95107 1.01339 1.48223 1.48223C1.01339 1.95107 0.75 2.58696 0.75 3.25Z" stroke="var(--stroke-0, #0E0E0E)" stroke-width="1.5" stroke-linecap="round" stroke-linejoin="round"/>
</svg>
