<svg preserveAspectRatio="none" width="100%" height="100%" overflow="visible" style="display: block;" viewBox="0 0 18.5 21.5" fill="none" xmlns="http://www.w3.org/2000/svg">
<path id="Trash" d="M16.05 7.41667L15.098 16.7478C14.9541 18.1622 14.8827 18.8689 14.554 19.4033C14.2657 19.8738 13.8418 20.25 13.3357 20.4844C12.7611 20.75 12.038 20.75 10.5873 20.75H7.91267C6.46313 20.75 5.73893 20.75 5.16433 20.4833C4.65779 20.2491 4.23343 19.8728 3.94487 19.4022C3.61847 18.8689 3.54593 18.1622 3.40087 16.7478L2.45 7.41667M10.95 14.6389V9.08333M7.55 14.6389V9.08333M0.75 4.63889H5.98033M5.98033 4.63889L6.4178 1.67C6.54473 1.13 7.0026 0.75 7.52847 0.75H10.9715C11.4974 0.75 11.9541 1.13 12.0822 1.67L12.5197 4.63889M5.98033 4.63889H12.5197M12.5197 4.63889H17.75" stroke="var(--stroke-0, #0E0E0E)" stroke-width="1.5" stroke-linecap="round" stroke-linejoin="round"/>
</svg>
