<svg preserveAspectRatio="none" width="100%" height="100%" overflow="visible" style="display: block;" viewBox="0 0 21.5 23.5" fill="none" xmlns="http://www.w3.org/2000/svg">
<path id="Lock" d="M6.04412 9.30556V6.86111C6.04412 3.48656 7.50177 0.75 10.75 0.75C13.9982 0.75 15.4559 3.48656 15.4559 6.86111V9.30556M0.75 18.8389V13.2167C0.75 11.8478 0.75 11.1633 1.00647 10.6414C1.23185 10.1811 1.59181 9.80667 2.03471 9.572C2.53824 9.30678 3.19706 9.30678 4.51471 9.30678H16.9853C18.3029 9.30678 18.9618 9.30678 19.4653 9.572C19.908 9.80635 20.2679 10.1803 20.4935 10.6402C20.75 11.1633 20.75 11.8478 20.75 13.2167V18.8389C20.75 20.2078 20.75 20.8922 20.4935 21.4153C20.2679 21.8753 19.908 22.2492 19.4653 22.4836C18.9618 22.75 18.3029 22.75 16.9853 22.75H4.51471C3.19706 22.75 2.53824 22.75 2.03471 22.4836C1.59199 22.2492 1.23205 21.8753 1.00647 21.4153C0.75 20.8934 0.75 20.209 0.75 18.8389Z" stroke="var(--stroke-0, #0E0E0E)" stroke-width="1.5" stroke-linecap="round" stroke-linejoin="round"/>
</svg>
