<svg preserveAspectRatio="none" width="100%" height="100%" overflow="visible" style="display: block;" viewBox="0 0 23.5 22.5" fill="none" xmlns="http://www.w3.org/2000/svg">
<path id="Music" d="M7.625 18.2292C7.625 20.1737 6.085 21.75 4.18811 21.75C2.28878 21.75 0.75 20.1737 0.75 18.2292C0.75 16.286 2.29 14.7097 4.18811 14.7097C6.08622 14.7097 7.625 16.2848 7.625 18.2292ZM7.625 18.2292V3.17272C7.625 2.53033 8.10655 1.99419 8.73599 1.93613L21.4165 0.755127C21.5862 0.739451 21.7573 0.759818 21.9188 0.81492C22.0802 0.870022 22.2285 0.958642 22.3541 1.07509C22.4796 1.19154 22.5797 1.33324 22.6479 1.4911C22.7161 1.64895 22.7509 1.81948 22.75 1.99172V16.8209C22.75 18.7641 21.21 20.3417 19.3131 20.3417C17.4138 20.3417 15.875 18.7641 15.875 16.8209C15.875 14.8777 17.415 13.3002 19.3131 13.3002C21.2112 13.3002 22.75 14.8789 22.75 16.8234" stroke="var(--stroke-0, #0E0E0E)" stroke-width="1.5" stroke-linecap="round" stroke-linejoin="round"/>
</svg>
