<svg preserveAspectRatio="none" width="100%" height="100%" overflow="visible" style="display: block;" viewBox="0 0 19.5 23.5" fill="none" xmlns="http://www.w3.org/2000/svg">
<path id="Share" d="M12.75 5.02778L6.75 9.30556M12.75 18.4722L6.75 14.1944M6.75 11.75C6.75 12.5604 6.43393 13.3376 5.87132 13.9106C5.30871 14.4836 4.54565 14.8056 3.75 14.8056C2.95435 14.8056 2.19129 14.4836 1.62868 13.9106C1.06607 13.3376 0.75 12.5604 0.75 11.75C0.75 10.9396 1.06607 10.1624 1.62868 9.5894C2.19129 9.01637 2.95435 8.69444 3.75 8.69444C4.54565 8.69444 5.30871 9.01637 5.87132 9.5894C6.43393 10.1624 6.75 10.9396 6.75 11.75ZM18.75 19.6944C18.75 20.5048 18.4339 21.282 17.8713 21.855C17.3087 22.4281 16.5457 22.75 15.75 22.75C14.9544 22.75 14.1913 22.4281 13.6287 21.855C13.0661 21.282 12.75 20.5048 12.75 19.6944C12.75 18.8841 13.0661 18.1069 13.6287 17.5338C14.1913 16.9608 14.9544 16.6389 15.75 16.6389C16.5457 16.6389 17.3087 16.9608 17.8713 17.5338C18.4339 18.1069 18.75 18.8841 18.75 19.6944ZM18.75 3.80556C18.75 4.61594 18.4339 5.39313 17.8713 5.96616C17.3087 6.53919 16.5457 6.86111 15.75 6.86111C14.9544 6.86111 14.1913 6.53919 13.6287 5.96616C13.0661 5.39313 12.75 4.61594 12.75 3.80556C12.75 2.99517 13.0661 2.21798 13.6287 1.64495C14.1913 1.07192 14.9544 0.75 15.75 0.75C16.5457 0.75 17.3087 1.07192 17.8713 1.64495C18.4339 2.21798 18.75 2.99517 18.75 3.80556Z" stroke="var(--stroke-0, #0E0E0E)" stroke-width="1.5" stroke-linecap="round" stroke-linejoin="round"/>
</svg>
