<svg preserveAspectRatio="none" width="100%" height="100%" overflow="visible" style="display: block;" viewBox="0 0 23.5 23.5" fill="none" xmlns="http://www.w3.org/2000/svg">
<path id="Globe" d="M11.75 22.75C13.1945 22.75 14.6249 22.4655 15.9595 21.9127C17.2941 21.3599 18.5067 20.5496 19.5282 19.5282C20.5496 18.5067 21.3599 17.2941 21.9127 15.9595C22.4655 14.6249 22.75 13.1945 22.75 11.75C22.75 10.3055 22.4655 8.87506 21.9127 7.54048C21.3599 6.2059 20.5496 4.99327 19.5282 3.97183C18.5067 2.95038 17.2941 2.14013 15.9595 1.58733C14.6249 1.03452 13.1945 0.75 11.75 0.75M11.75 22.75C10.3055 22.75 8.87506 22.4655 7.54048 21.9127C6.2059 21.3599 4.99327 20.5496 3.97183 19.5282C2.95038 18.5067 2.14013 17.2941 1.58733 15.9595C1.03452 14.6249 0.75 13.1945 0.75 11.75C0.75 10.3055 1.03452 8.87506 1.58733 7.54048C2.14013 6.2059 2.95038 4.99327 3.97183 3.97183C4.99327 2.95038 6.2059 2.14013 7.54048 1.58733C8.87506 1.03452 10.3055 0.75 11.75 0.75M11.75 22.75C15.1246 22.75 16.5668 16.4397 16.5668 11.75C16.5668 7.06033 15.1246 0.75 11.75 0.75M11.75 22.75C8.37544 22.75 6.93322 16.4397 6.93322 11.75C6.93322 7.06033 8.37544 0.75 11.75 0.75M1.36111 8.08333H22.1389M1.36111 15.4167H22.1389" stroke="var(--stroke-0, #0E0E0E)" stroke-width="1.5" stroke-linecap="round" stroke-linejoin="round"/>
</svg>
