<svg preserveAspectRatio="none" width="100%" height="100%" overflow="visible" style="display: block;" viewBox="0 0 22.5 23.5" fill="none" xmlns="http://www.w3.org/2000/svg">
<path id="ThumbsUp" d="M13.7698 9.43388H20.6045C23.7495 9.43388 19.6608 22.75 17.4077 22.75H1.94083C1.62784 22.7526 1.32661 22.6321 1.10333 22.4151C0.880041 22.1981 0.752969 21.9022 0.750034 21.5925V10.122C0.750034 9.69788 0.988441 9.308 1.37014 9.10511C3.91727 7.75333 6.90539 6.646 8.384 4.05856L9.96515 1.28902C10.0594 1.12446 10.1963 0.98776 10.3618 0.893014C10.5273 0.798268 10.7153 0.748906 10.9064 0.750018C14.8346 0.750018 13.6697 6.40889 13.1361 8.65778C13.1146 8.75141 13.1149 8.84864 13.1368 8.94217C13.1588 9.03569 13.2019 9.12308 13.2629 9.19777C13.3238 9.27245 13.4011 9.3325 13.4889 9.37339C13.5767 9.41429 13.6727 9.43497 13.7698 9.43388Z" stroke="var(--stroke-0, #0E0E0E)" stroke-width="1.5" stroke-linecap="round" stroke-linejoin="round"/>
</svg>
