<svg preserveAspectRatio="none" width="100%" height="100%" overflow="visible" style="display: block;" viewBox="0 0 23.5 23.5" fill="none" xmlns="http://www.w3.org/2000/svg">
<path id="Discover" d="M22.75 11.75C22.75 13.1945 22.4655 14.6249 21.9127 15.9595C21.3599 17.2941 20.5496 18.5067 19.5282 19.5282C18.5067 20.5496 17.2941 21.3599 15.9595 21.9127C14.6249 22.4655 13.1945 22.75 11.75 22.75C10.3055 22.75 8.87506 22.4655 7.54048 21.9127C6.2059 21.3599 4.99327 20.5496 3.97183 19.5282C2.95038 18.5067 2.14013 17.2941 1.58733 15.9595C1.03452 14.6249 0.75 13.1945 0.75 11.75C0.75 8.83262 1.90893 6.03473 3.97183 3.97183C6.03473 1.90893 8.83262 0.75 11.75 0.75C14.6674 0.75 17.4653 1.90893 19.5282 3.97183C21.5911 6.03473 22.75 8.83262 22.75 11.75Z" fill="var(--fill-0, #CC2486)" stroke="var(--stroke-0, #CC2486)" stroke-width="1.5" stroke-linecap="round" stroke-linejoin="round"/>
</svg>
