<svg preserveAspectRatio="none" width="100%" height="100%" overflow="visible" style="display: block;" viewBox="0 0 22.5 22.5002" fill="none" xmlns="http://www.w3.org/2000/svg">
<path id="Camera" d="M15.9167 0.754094H19.4167M21.19 21.0667C21.5493 20.6293 21.75 20.0355 21.75 19.4173V5.4199C21.75 4.80168 21.5493 4.20679 21.19 3.77054C20.8342 3.33195 20.3488 3.087 19.8425 3.087H9.36467C7.35217 3.087 6.9625 1.06787 5.21483 0.784421C4.90683 0.734264 4.58717 0.754094 4.27567 0.754094C3.16383 0.754094 2.6085 0.754093 2.171 0.939559C1.61448 1.17607 1.17153 1.61936 0.9355 2.176C0.75 2.61108 0.75 3.16632 0.75 4.27794V19.4173C0.75 20.0355 0.950667 20.6304 1.31 21.0667C1.667 21.5041 2.15233 21.7502 2.65867 21.7502H19.8413C20.3477 21.7502 20.8318 21.5053 21.19 21.0667Z" stroke="var(--stroke-0, #0E0E0E)" stroke-width="1.5" stroke-linecap="round" stroke-linejoin="round"/>
</svg>
