<svg preserveAspectRatio="none" width="100%" height="100%" overflow="visible" style="display: block;" viewBox="0 0 23.5 16.5" fill="none" xmlns="http://www.w3.org/2000/svg">
<path id="Eye" d="M1.35458 9.75643C1.05537 9.35679 0.905761 9.15643 0.802357 8.77071C0.732548 8.42726 0.732548 8.07381 0.802357 7.73036C0.905761 7.34357 1.05537 7.14321 1.35458 6.74464C2.99255 4.55357 6.58309 0.75 11.75 0.75C16.9169 0.75 20.5075 4.55357 22.1454 6.74357C22.4446 7.14321 22.5942 7.34357 22.6976 7.72929C22.7675 8.07274 22.7675 8.42619 22.6976 8.76964C22.5942 9.15643 22.4446 9.35679 22.1454 9.75536C20.5075 11.9464 16.9169 15.75 11.75 15.75C6.58309 15.75 2.99255 11.9464 1.35458 9.75643Z" stroke="var(--stroke-0, #0E0E0E)" stroke-width="1.5" stroke-linecap="round" stroke-linejoin="round"/>
</svg>
