<svg preserveAspectRatio="none" width="100%" height="100%" overflow="visible" style="display: block;" viewBox="0 0 58.5 58.5002" fill="none" xmlns="http://www.w3.org/2000/svg">
<path id="LargeCamera" d="M41.9167 0.760705H51.4167M56.23 55.8949C57.2053 54.7076 57.75 53.0961 57.75 51.418V13.425C57.75 11.747 57.2053 10.1323 56.23 8.9482C55.2642 7.75775 53.9468 7.09287 52.5725 7.09287H24.1327C18.6702 7.09287 17.6125 1.61238 12.8688 0.843024C12.0328 0.706882 11.1652 0.760705 10.3197 0.760705C7.30183 0.760705 5.7945 0.760705 4.607 1.26411C3.09644 1.90606 1.89414 3.10927 1.2535 4.62016C0.75 5.80111 0.75 7.30817 0.75 10.3254V51.418C0.75 53.0961 1.29467 54.7108 2.27 55.8949C3.239 57.0822 4.55633 57.7502 5.93067 57.7502H52.5693C53.9437 57.7502 55.2578 57.0853 56.23 55.8949Z" stroke="var(--stroke-0, #0E0E0E)" stroke-width="1.5" stroke-linecap="round" stroke-linejoin="round"/>
</svg>
